<?xml version="1.0" encoding="utf-8"?>
<!-- Generator: Adobe Illustrator 24.3.0, SVG Export Plug-In . SVG Version: 6.00 Build 0)  -->
<svg version="1.1" id="Layer_1" xmlns="http://www.w3.org/2000/svg" xmlns:xlink="http://www.w3.org/1999/xlink" x="0px" y="0px"
	 viewBox="0 0 1807.2 300.5" style="enable-background:new 0 0 1807.2 300.5;" xml:space="preserve">
<style type="text/css">
	.st0{fill:#1A1A1A;}
	.st1{fill:#FF005C;}
</style>
<g>
	<g>
		<g>
			<path class="st0" d="M1016.8,194.5c3.9,0,7,3.1,7,7v46.7c0,3.1-2.5,5.6-5.6,5.6H864.8c-3.9,0-7-3.1-7-7v-174c0-3.9,3.1-7,7-7
				h153.4c3.1,0,5.6,2.5,5.6,5.6v46.7c0,3.9-3.1,7-7,7h-74.6v9.9h74.6c3.9,0,7,3.1,7,7v35.5c0,4.2-3.1,7.3-7,7.3h-74.6v9.6
				L1016.8,194.5L1016.8,194.5z"/>
			<path class="st0" d="M1018.2,193.2c3.9,0,7,3.1,7,7v46.7c0,3.1-2.5,5.6-5.6,5.6H866.2c-3.9,0-7-3.1-7-7v-174c0-3.9,3.1-7,7-7
				h153.4c3.1,0,5.6,2.5,5.6,5.6v46.7c0,3.9-3.1,7-7,7h-74.6v9.9h74.6c3.9,0,7,3.1,7,7v35.5c0,4.2-3.1,7.3-7,7.3h-74.6v9.6
				L1018.2,193.2L1018.2,193.2z"/>
			<path class="st0" d="M1019.5,191.8c3.9,0,7,3.1,7,7v46.7c0,3.1-2.5,5.6-5.6,5.6H867.5c-3.9,0-7-3.1-7-7v-174c0-3.9,3.1-7,7-7
				h153.4c3.1,0,5.6,2.5,5.6,5.6v46.7c0,3.9-3.1,7-7,7h-74.6v9.9h74.6c3.9,0,7,3.1,7,7v35.5c0,4.2-3.1,7.3-7,7.3h-74.6v9.6
				L1019.5,191.8L1019.5,191.8z"/>
			<path class="st0" d="M1020.9,190.4c3.9,0,7,3.1,7,7v46.7c0,3.1-2.5,5.6-5.6,5.6H868.9c-3.9,0-7-3.1-7-7v-174c0-3.9,3.1-7,7-7
				h153.4c3.1,0,5.6,2.5,5.6,5.6v46.7c0,3.9-3.1,7-7,7h-74.6v9.9h74.6c3.9,0,7,3.1,7,7v35.5c0,4.2-3.1,7.3-7,7.3h-74.6v9.6
				L1020.9,190.4L1020.9,190.4z"/>
			<path class="st0" d="M1022.3,189.1c3.9,0,7,3.1,7,7v46.7c0,3.1-2.5,5.6-5.6,5.6H870.3c-3.9,0-7-3.1-7-7v-174c0-3.9,3.1-7,7-7
				h153.4c3.1,0,5.6,2.5,5.6,5.6v46.7c0,3.9-3.1,7-7,7h-74.6v9.9h74.6c3.9,0,7,3.1,7,7v35.5c0,4.2-3.1,7.3-7,7.3h-74.6v9.6
				L1022.3,189.1L1022.3,189.1z"/>
			<path class="st0" d="M1023.6,187.7c3.9,0,7,3.1,7,7v46.7c0,3.1-2.5,5.6-5.6,5.6H871.6c-3.9,0-7-3.1-7-7v-174c0-3.9,3.1-7,7-7
				H1025c3.1,0,5.6,2.5,5.6,5.6v46.7c0,3.9-3.1,7-7,7H949v9.9h74.6c3.9,0,7,3.1,7,7v35.5c0,4.2-3.1,7.3-7,7.3H949v9.6L1023.6,187.7
				L1023.6,187.7z"/>
			<path class="st0" d="M1025,186.3c3.9,0,7,3.1,7,7v46.7c0,3.1-2.5,5.6-5.6,5.6H873c-3.9,0-7-3.1-7-7v-174c0-3.9,3.1-7,7-7h153.4
				c3.1,0,5.6,2.5,5.6,5.6V110c0,3.9-3.1,7-7,7h-74.6v9.9h74.6c3.9,0,7,3.1,7,7v35.5c0,4.2-3.1,7.3-7,7.3h-74.6v9.6L1025,186.3
				L1025,186.3z"/>
			<path class="st0" d="M1026.4,185c3.9,0,7,3.1,7,7v46.7c0,3.1-2.5,5.6-5.6,5.6H874.4c-3.9,0-7-3.1-7-7v-174c0-3.9,3.1-7,7-7h153.4
				c3.1,0,5.6,2.5,5.6,5.6v46.7c0,3.9-3.1,7-7,7h-74.6v9.9h74.6c3.9,0,7,3.1,7,7v35.5c0,4.2-3.1,7.3-7,7.3h-74.6v9.6L1026.4,185
				L1026.4,185z"/>
			<path class="st0" d="M1027.7,183.6c3.9,0,7,3.1,7,7v46.7c0,3.1-2.5,5.6-5.6,5.6H875.7c-3.9,0-7-3.1-7-7V62c0-3.9,3.1-7,7-7h153.4
				c3.1,0,5.6,2.5,5.6,5.6v46.7c0,3.9-3.1,7-7,7h-74.6v9.9h74.6c3.9,0,7,3.1,7,7v35.5c0,4.2-3.1,7.3-7,7.3h-74.6v9.6L1027.7,183.6
				L1027.7,183.6z"/>
			<path class="st0" d="M1029.1,182.2c3.9,0,7,3.1,7,7V236c0,3.1-2.5,5.6-5.6,5.6H877.1c-3.9,0-7-3.1-7-7v-174c0-3.9,3.1-7,7-7
				h153.4c3.1,0,5.6,2.5,5.6,5.6v46.7c0,3.9-3.1,7-7,7h-74.6v9.9h74.6c3.9,0,7,3.1,7,7v35.5c0,4.2-3.1,7.3-7,7.3h-74.6v9.6
				L1029.1,182.2L1029.1,182.2z"/>
			<path class="st0" d="M1030.5,180.8c3.9,0,7,3.1,7,7v46.7c0,3.1-2.5,5.6-5.6,5.6H878.5c-3.9,0-7-3.1-7-7v-174c0-3.9,3.1-7,7-7
				h153.4c3.1,0,5.6,2.5,5.6,5.6v46.7c0,3.9-3.1,7-7,7h-74.6v9.9h74.6c3.9,0,7,3.1,7,7v35.5c0,4.2-3.1,7.3-7,7.3h-74.6v9.6
				L1030.5,180.8L1030.5,180.8z"/>
			<path class="st0" d="M1031.8,179.5c3.9,0,7,3.1,7,7v46.7c0,3.1-2.5,5.6-5.6,5.6H879.8c-3.9,0-7-3.1-7-7v-174c0-3.9,3.1-7,7-7
				h153.4c3.1,0,5.6,2.5,5.6,5.6v46.7c0,3.9-3.1,7-7,7h-74.6v9.9h74.6c3.9,0,7,3.1,7,7v35.5c0,4.2-3.1,7.3-7,7.3h-74.6v9.6
				L1031.8,179.5L1031.8,179.5z"/>
			<path class="st0" d="M1033.2,178.1c3.9,0,7,3.1,7,7v46.7c0,3.1-2.5,5.6-5.6,5.6H881.2c-3.9,0-7-3.1-7-7v-174c0-3.9,3.1-7,7-7
				h153.4c3.1,0,5.6,2.5,5.6,5.6v46.7c0,3.9-3.1,7-7,7h-74.6v9.9h74.6c3.9,0,7,3.1,7,7v35.5c0,4.2-3.1,7.3-7,7.3h-74.6v9.6
				L1033.2,178.1L1033.2,178.1z"/>
			<path class="st0" d="M1034.6,176.7c3.9,0,7,3.1,7,7v46.7c0,3.1-2.5,5.6-5.6,5.6H882.6c-3.9,0-7-3.1-7-7v-174c0-3.9,3.1-7,7-7
				H1036c3.1,0,5.6,2.5,5.6,5.6v46.7c0,3.9-3.1,7-7,7H960v9.9h74.6c3.9,0,7,3.1,7,7v35.5c0,4.2-3.1,7.3-7,7.3H960v9.6L1034.6,176.7
				L1034.6,176.7z"/>
			<path class="st0" d="M1035.9,175.4c3.9,0,7,3.1,7,7v46.7c0,3.1-2.5,5.6-5.6,5.6H884c-3.9,0-7-3.1-7-7v-174c0-3.9,3.1-7,7-7h153.4
				c3.1,0,5.6,2.5,5.6,5.6v46.7c0,3.9-3.1,7-7,7h-74.6v9.9h74.6c3.9,0,7,3.1,7,7v35.5c0,4.2-3.1,7.3-7,7.3h-74.6v9.6L1035.9,175.4
				L1035.9,175.4z"/>
			<path class="st0" d="M1037.3,174c3.9,0,7,3.1,7,7v46.7c0,3.1-2.5,5.6-5.6,5.6H885.3c-3.9,0-7-3.1-7-7v-174c0-3.9,3.1-7,7-7h153.4
				c3.1,0,5.6,2.5,5.6,5.6v46.7c0,3.9-3.1,7-7,7h-74.6v9.9h74.6c3.9,0,7,3.1,7,7v35.5c0,4.2-3.1,7.3-7,7.3h-74.6v9.6L1037.3,174
				L1037.3,174z"/>
			<path class="st0" d="M1038.7,172.6c3.9,0,7,3.1,7,7v46.7c0,3.1-2.5,5.6-5.6,5.6H886.7c-3.9,0-7-3.1-7-7V51c0-3.9,3.1-7,7-7h153.4
				c3.1,0,5.6,2.5,5.6,5.6v46.7c0,3.9-3.1,7-7,7h-74.6v9.9h74.6c3.9,0,7,3.1,7,7v35.5c0,4.2-3.1,7.3-7,7.3h-74.6v9.6L1038.7,172.6
				L1038.7,172.6z"/>
			<path class="st0" d="M1040,171.3c3.9,0,7,3.1,7,7V225c0,3.1-2.5,5.6-5.6,5.6H888.1c-3.9,0-7-3.1-7-7v-174c0-3.9,3.1-7,7-7h153.4
				c3.1,0,5.6,2.5,5.6,5.6V95c0,3.9-3.1,7-7,7h-74.6v9.9h74.6c3.9,0,7,3.1,7,7v35.5c0,4.2-3.1,7.3-7,7.3h-74.6v9.6L1040,171.3
				L1040,171.3z"/>
			<path class="st0" d="M1041.4,169.9c3.9,0,7,3.1,7,7v46.7c0,3.1-2.5,5.6-5.6,5.6H889.4c-3.9,0-7-3.1-7-7v-174c0-3.9,3.1-7,7-7
				h153.4c3.1,0,5.6,2.5,5.6,5.6v46.7c0,3.9-3.1,7-7,7h-74.6v9.9h74.6c3.9,0,7,3.1,7,7V153c0,4.2-3.1,7.3-7,7.3h-74.6v9.6
				L1041.4,169.9L1041.4,169.9z"/>
			<path class="st0" d="M1042.8,168.5c3.9,0,7,3.1,7,7v46.7c0,3.1-2.5,5.6-5.6,5.6H890.8c-3.9,0-7-3.1-7-7v-174c0-3.9,3.1-7,7-7
				h153.4c3.1,0,5.6,2.5,5.6,5.6v46.7c0,3.9-3.1,7-7,7h-74.6v9.9h74.6c3.9,0,7,3.1,7,7v35.5c0,4.2-3.1,7.3-7,7.3h-74.6v9.6
				L1042.8,168.5L1042.8,168.5z"/>
			<path class="st0" d="M1044.2,167.2c3.9,0,7,3.1,7,7v46.7c0,3.1-2.5,5.6-5.6,5.6H892.2c-3.9,0-7-3.1-7-7v-174c0-3.9,3.1-7,7-7
				h153.4c3.1,0,5.6,2.5,5.6,5.6v46.7c0,3.9-3.1,7-7,7h-74.6v9.9h74.6c3.9,0,7,3.1,7,7v35.5c0,4.2-3.1,7.3-7,7.3h-74.6v9.6
				L1044.2,167.2L1044.2,167.2z"/>
		</g>
		<path class="st1" d="M1044.2,167.2c3.9,0,7,3.1,7,7v46.7c0,3.1-2.5,5.6-5.6,5.6H892.2c-3.9,0-7-3.1-7-7v-174c0-3.9,3.1-7,7-7
			h153.4c3.1,0,5.6,2.5,5.6,5.6v46.7c0,3.9-3.1,7-7,7h-74.6v9.9h74.6c3.9,0,7,3.1,7,7v35.5c0,4.2-3.1,7.3-7,7.3h-74.6v9.6
			L1044.2,167.2L1044.2,167.2z"/>
	</g>
	<g>
		<g>
			<path class="st0" d="M672.8,253.9c-4.2,0-7.3-3.1-7.3-7v-174c0-3.9,3.1-7,7-7H773c55.7,0,72.1,37.7,72.3,68.7
				c0,19.7-4.8,40.5-19.7,49l19.7,70.4h-65.3c-13.8,0-31-4.5-34.9-16L706.3,125c-1.1-3.1-3.7-4.5-6.8-3.7c-2.8,0.8-4.2,3.9-3.1,7.3
				L739,253.9H672.8z"/>
			<path class="st0" d="M674.2,252.6c-4.2,0-7.3-3.1-7.3-7v-174c0-3.9,3.1-7,7-7h100.5c55.7,0,72.1,37.7,72.3,68.7
				c0,19.7-4.8,40.5-19.7,49l19.7,70.4h-65.3c-13.8,0-31-4.5-34.9-16l-38.8-112.9c-1.1-3.1-3.7-4.5-6.8-3.7
				c-2.8,0.8-4.2,3.9-3.1,7.3l42.5,125.3H674.2z"/>
			<path class="st0" d="M675.6,251.2c-4.2,0-7.3-3.1-7.3-7v-174c0-3.9,3.1-7,7-7h100.5c55.7,0,72.1,37.7,72.3,68.7
				c0,19.7-4.8,40.5-19.7,49l19.7,70.4h-65.3c-13.8,0-31-4.5-34.9-16L709,122.3c-1.1-3.1-3.7-4.5-6.8-3.7c-2.8,0.8-4.2,3.9-3.1,7.3
				l42.5,125.3H675.6z"/>
			<path class="st0" d="M676.9,249.8c-4.2,0-7.3-3.1-7.3-7v-174c0-3.9,3.1-7,7-7h100.5c55.7,0,72.1,37.7,72.3,68.7
				c0,19.7-4.8,40.5-19.7,49l19.7,70.4h-65.3c-13.8,0-31-4.5-34.9-16l-38.8-112.9c-1.1-3.1-3.7-4.5-6.8-3.7
				c-2.8,0.8-4.2,3.9-3.1,7.3l42.5,125.3H676.9z"/>
			<path class="st0" d="M678.3,248.4c-4.2,0-7.3-3.1-7.3-7v-174c0-3.9,3.1-7,7-7h100.5c55.7,0,72.1,37.7,72.3,68.7
				c0,19.7-4.8,40.5-19.7,49l19.7,70.4h-65.3c-13.8,0-31-4.5-34.9-16l-38.8-112.9c-1.1-3.1-3.7-4.5-6.8-3.7
				c-2.8,0.8-4.2,3.9-3.1,7.3l42.5,125.3H678.3z"/>
			<path class="st0" d="M679.7,247.1c-4.2,0-7.3-3.1-7.3-7v-174c0-3.9,3.1-7,7-7h100.5c55.7,0,72.1,37.7,72.3,68.7
				c0,19.7-4.8,40.5-19.7,49l19.7,70.4h-65.3c-13.8,0-31-4.5-34.9-16l-38.8-112.9c-1.1-3.1-3.7-4.5-6.8-3.7
				c-2.8,0.8-4.2,3.9-3.1,7.3l42.5,125.3H679.7z"/>
			<path class="st0" d="M681,245.7c-4.2,0-7.3-3.1-7.3-7v-174c0-3.9,3.1-7,7-7h100.5c55.7,0,72.1,37.7,72.3,68.7
				c0,19.7-4.8,40.5-19.7,49l19.7,70.4h-65.3c-13.8,0-31-4.5-34.9-16l-38.8-112.9c-1.1-3.1-3.7-4.5-6.8-3.7
				c-2.8,0.8-4.2,3.9-3.1,7.3l42.5,125.3L681,245.7L681,245.7z"/>
			<path class="st0" d="M682.4,244.3c-4.2,0-7.3-3.1-7.3-7v-174c0-3.9,3.1-7,7-7h100.5c55.7,0,72.1,37.7,72.3,68.7
				c0,19.7-4.8,40.5-19.7,49l19.7,70.4h-65.3c-13.8,0-31-4.5-34.9-16l-38.8-112.9c-1.1-3.1-3.7-4.5-6.8-3.7
				c-2.8,0.8-4.2,3.9-3.1,7.3l42.5,125.3L682.4,244.3L682.4,244.3z"/>
			<path class="st0" d="M683.8,243c-4.2,0-7.3-3.1-7.3-7V62c0-3.9,3.1-7,7-7H784c55.7,0,72.1,37.7,72.3,68.7
				c0,19.7-4.8,40.5-19.7,49l19.7,70.4H791c-13.8,0-31-4.5-34.9-16L717.3,114c-1.1-3.1-3.7-4.5-6.8-3.7c-2.8,0.8-4.2,3.9-3.1,7.3
				L749.9,243L683.8,243L683.8,243z"/>
			<path class="st0" d="M685.1,241.6c-4.2,0-7.3-3.1-7.3-7v-174c0-3.9,3.1-7,7-7h100.5c55.7,0,72.1,37.7,72.3,68.7
				c0,19.7-4.8,40.5-19.7,49l19.7,70.4h-65.3c-13.8,0-31-4.5-34.9-16l-38.8-112.9c-1.1-3.1-3.7-4.5-6.8-3.7
				c-2.8,0.8-4.2,3.9-3.1,7.3l42.5,125.3L685.1,241.6L685.1,241.6z"/>
			<path class="st0" d="M686.5,240.2c-4.2,0-7.3-3.1-7.3-7v-174c0-3.9,3.1-7,7-7h100.5c55.7,0,72.1,37.7,72.3,68.7
				c0,19.7-4.8,40.5-19.7,49l19.7,70.4h-65.3c-13.8,0-31-4.5-34.9-16L720,111.3c-1.1-3.1-3.7-4.5-6.8-3.7c-2.8,0.8-4.2,3.9-3.1,7.3
				l42.5,125.3L686.5,240.2L686.5,240.2z"/>
			<path class="st0" d="M687.9,238.9c-4.2,0-7.3-3.1-7.3-7v-174c0-3.9,3.1-7,7-7h100.5c55.7,0,72.1,37.7,72.3,68.7
				c0,19.7-4.8,40.5-19.7,49l19.7,70.4h-65.3c-13.8,0-31-4.5-34.9-16l-38.8-112.9c-1.1-3.1-3.7-4.5-6.8-3.7
				c-2.8,0.8-4.2,3.9-3.1,7.3L754,238.9L687.9,238.9L687.9,238.9z"/>
			<path class="st0" d="M689.2,237.5c-4.2,0-7.3-3.1-7.3-7v-174c0-3.9,3.1-7,7-7h100.5c55.7,0,72.1,37.7,72.3,68.7
				c0,19.7-4.8,40.5-19.7,49l19.7,70.4h-65.3c-13.8,0-31-4.5-34.9-16l-38.8-112.9c-1.1-3.1-3.7-4.5-6.8-3.7
				c-2.8,0.8-4.2,3.9-3.1,7.3l42.5,125.3L689.2,237.5L689.2,237.5z"/>
			<path class="st0" d="M690.6,236.1c-4.2,0-7.3-3.1-7.3-7v-174c0-3.9,3.1-7,7-7h100.5c55.7,0,72.1,37.7,72.3,68.7
				c0,19.7-4.8,40.5-19.7,49l19.7,70.4h-65.3c-13.8,0-31-4.5-34.9-16l-38.8-112.9c-1.1-3.1-3.7-4.5-6.8-3.7
				c-2.8,0.8-4.2,3.9-3.1,7.3l42.5,125.3L690.6,236.1L690.6,236.1z"/>
			<path class="st0" d="M692,234.8c-4.2,0-7.3-3.1-7.3-7v-174c0-3.9,3.1-7,7-7h100.5c55.7,0,72.1,37.7,72.3,68.7
				c0,19.7-4.8,40.5-19.7,49l19.7,70.4h-65.3c-13.8,0-31-4.5-34.9-16l-38.8-112.9c-1.1-3.1-3.7-4.5-6.8-3.7
				c-2.8,0.8-4.2,3.9-3.1,7.3l42.5,125.3L692,234.8L692,234.8z"/>
			<path class="st0" d="M693.3,233.4c-4.2,0-7.3-3.1-7.3-7v-174c0-3.9,3.1-7,7-7h100.5c55.7,0,72.1,37.7,72.3,68.7
				c0,19.7-4.8,40.5-19.7,49l19.7,70.4h-65.3c-13.8,0-31-4.5-34.9-16l-38.8-112.9c-1.1-3.1-3.7-4.5-6.8-3.7
				c-2.8,0.8-4.2,3.9-3.1,7.3l42.5,125.3L693.3,233.4L693.3,233.4z"/>
			<path class="st0" d="M694.7,232c-4.2,0-7.3-3.1-7.3-7V51c0-3.9,3.1-7,7-7h100.5c55.7,0,72.1,37.7,72.3,68.7
				c0,19.7-4.8,40.5-19.7,49l19.7,70.4H802c-13.8,0-31-4.5-34.9-16l-38.8-112.9c-1.1-3.1-3.7-4.5-6.8-3.7c-2.8,0.8-4.2,3.9-3.1,7.3
				L760.9,232L694.7,232L694.7,232z"/>
			<path class="st0" d="M696.1,230.7c-4.2,0-7.3-3.1-7.3-7v-174c0-3.9,3.1-7,7-7h100.5c55.7,0,72.1,37.7,72.3,68.7
				c0,19.7-4.8,40.5-19.7,49l19.7,70.4h-65.3c-13.8,0-31-4.5-34.9-16l-38.8-112.9c-1.1-3.1-3.7-4.5-6.8-3.7
				c-2.8,0.8-4.2,3.9-3.1,7.3l42.5,125.3L696.1,230.7L696.1,230.7z"/>
			<path class="st0" d="M697.5,229.3c-4.2,0-7.3-3.1-7.3-7v-174c0-3.9,3.1-7,7-7h100.5c55.7,0,72.1,37.7,72.3,68.7
				c0,19.7-4.8,40.5-19.7,49l19.7,70.4h-65.3c-13.8,0-31-4.5-34.9-16l-38.8-112.9c-1.1-3.1-3.7-4.5-6.8-3.7
				c-2.8,0.8-4.2,3.9-3.1,7.3l42.5,125.3L697.5,229.3L697.5,229.3z"/>
			<path class="st0" d="M698.8,227.9c-4.2,0-7.3-3.1-7.3-7v-174c0-3.9,3.1-7,7-7H799c55.7,0,72.1,37.7,72.3,68.7
				c0,19.7-4.8,40.5-19.7,49l19.7,70.4h-65.3c-13.8,0-31-4.5-34.9-16L732.3,99c-1.1-3.1-3.7-4.5-6.8-3.7c-2.8,0.8-4.2,3.9-3.1,7.3
				L765,227.9L698.8,227.9L698.8,227.9z"/>
			<path class="st0" d="M700.2,226.5c-4.2,0-7.3-3.1-7.3-7v-174c0-3.9,3.1-7,7-7h100.5c55.7,0,72.1,37.7,72.3,68.7
				c0,19.7-4.8,40.5-19.7,49l19.7,70.4h-65.3c-13.8,0-31-4.5-34.9-16L733.7,97.6c-1.1-3.1-3.7-4.5-6.8-3.7c-2.8,0.8-4.2,3.9-3.1,7.3
				l42.5,125.3L700.2,226.5L700.2,226.5z"/>
		</g>
		<path class="st1" d="M700.2,226.5c-4.2,0-7.3-3.1-7.3-7v-174c0-3.9,3.1-7,7-7h100.5c55.7,0,72.1,37.7,72.3,68.7
			c0,19.7-4.8,40.5-19.7,49l19.7,70.4h-65.3c-13.8,0-31-4.5-34.9-16L733.7,97.6c-1.1-3.1-3.7-4.5-6.8-3.7c-2.8,0.8-4.2,3.9-3.1,7.3
			l42.5,125.3L700.2,226.5L700.2,226.5z"/>
	</g>
	<g>
		<g>
			<path class="st0" d="M646.1,194.5c3.9,0,7,3.1,7,7v46.7c0,3.1-2.5,5.6-5.6,5.6H494.1c-3.9,0-7-3.1-7-7v-174c0-3.9,3.1-7,7-7
				h153.4c3.1,0,5.6,2.5,5.6,5.6v46.7c0,3.9-3.1,7-7,7h-74.6v9.9h74.6c3.9,0,7,3.1,7,7v35.5c0,4.2-3.1,7.3-7,7.3h-74.6v9.6
				L646.1,194.5L646.1,194.5z"/>
			<path class="st0" d="M647.4,193.2c3.9,0,7,3.1,7,7v46.7c0,3.1-2.5,5.6-5.6,5.6H495.4c-3.9,0-7-3.1-7-7v-174c0-3.9,3.1-7,7-7
				h153.4c3.1,0,5.6,2.5,5.6,5.6v46.7c0,3.9-3.1,7-7,7h-74.6v9.9h74.6c3.9,0,7,3.1,7,7v35.5c0,4.2-3.1,7.3-7,7.3h-74.6v9.6
				L647.4,193.2L647.4,193.2z"/>
			<path class="st0" d="M648.8,191.8c3.9,0,7,3.1,7,7v46.7c0,3.1-2.5,5.6-5.6,5.6H496.8c-3.9,0-7-3.1-7-7v-174c0-3.9,3.1-7,7-7
				h153.4c3.1,0,5.6,2.5,5.6,5.6v46.7c0,3.9-3.1,7-7,7h-74.6v9.9h74.6c3.9,0,7,3.1,7,7v35.5c0,4.2-3.1,7.3-7,7.3h-74.6v9.6
				L648.8,191.8L648.8,191.8z"/>
			<path class="st0" d="M650.2,190.4c3.9,0,7,3.1,7,7v46.7c0,3.1-2.5,5.6-5.6,5.6H498.2c-3.9,0-7-3.1-7-7v-174c0-3.9,3.1-7,7-7
				h153.4c3.1,0,5.6,2.5,5.6,5.6v46.7c0,3.9-3.1,7-7,7h-74.6v9.9h74.6c3.9,0,7,3.1,7,7v35.5c0,4.2-3.1,7.3-7,7.3h-74.6v9.6
				L650.2,190.4L650.2,190.4z"/>
			<path class="st0" d="M651.5,189.1c3.9,0,7,3.1,7,7v46.7c0,3.1-2.5,5.6-5.6,5.6H499.5c-3.9,0-7-3.1-7-7v-174c0-3.9,3.1-7,7-7
				h153.4c3.1,0,5.6,2.5,5.6,5.6v46.7c0,3.9-3.1,7-7,7h-74.6v9.9h74.6c3.9,0,7,3.1,7,7v35.5c0,4.2-3.1,7.3-7,7.3h-74.6v9.6
				L651.5,189.1L651.5,189.1z"/>
			<path class="st0" d="M652.9,187.7c3.9,0,7,3.1,7,7v46.7c0,3.1-2.5,5.6-5.6,5.6H500.9c-3.9,0-7-3.1-7-7v-174c0-3.9,3.1-7,7-7
				h153.4c3.1,0,5.6,2.5,5.6,5.6v46.7c0,3.9-3.1,7-7,7h-74.6v9.9h74.6c3.9,0,7,3.1,7,7v35.5c0,4.2-3.1,7.3-7,7.3h-74.6v9.6
				L652.9,187.7L652.9,187.7z"/>
			<path class="st0" d="M654.3,186.3c3.9,0,7,3.1,7,7v46.7c0,3.1-2.5,5.6-5.6,5.6H502.3c-3.9,0-7-3.1-7-7v-174c0-3.9,3.1-7,7-7
				h153.4c3.1,0,5.6,2.5,5.6,5.6V110c0,3.9-3.1,7-7,7h-74.6v9.9h74.6c3.9,0,7,3.1,7,7v35.5c0,4.2-3.1,7.3-7,7.3h-74.6v9.6
				L654.3,186.3L654.3,186.3z"/>
			<path class="st0" d="M655.7,185c3.9,0,7,3.1,7,7v46.7c0,3.1-2.5,5.6-5.6,5.6H503.6c-3.9,0-7-3.1-7-7v-174c0-3.9,3.1-7,7-7H657
				c3.1,0,5.6,2.5,5.6,5.6v46.7c0,3.9-3.1,7-7,7H581v9.9h74.6c3.9,0,7,3.1,7,7v35.5c0,4.2-3.1,7.3-7,7.3H581v9.6L655.7,185
				L655.7,185z"/>
			<path class="st0" d="M657,183.6c3.9,0,7,3.1,7,7v46.7c0,3.1-2.5,5.6-5.6,5.6H505c-3.9,0-7-3.1-7-7V62c0-3.9,3.1-7,7-7h153.4
				c3.1,0,5.6,2.5,5.6,5.6v46.7c0,3.9-3.1,7-7,7h-74.6v9.9H657c3.9,0,7,3.1,7,7v35.5c0,4.2-3.1,7.3-7,7.3h-74.6v9.6L657,183.6
				L657,183.6z"/>
			<path class="st0" d="M658.4,182.2c3.9,0,7,3.1,7,7V236c0,3.1-2.5,5.6-5.6,5.6H506.4c-3.9,0-7-3.1-7-7v-174c0-3.9,3.1-7,7-7h153.4
				c3.1,0,5.6,2.5,5.6,5.6v46.7c0,3.9-3.1,7-7,7h-74.6v9.9h74.6c3.9,0,7,3.1,7,7v35.5c0,4.2-3.1,7.3-7,7.3h-74.6v9.6L658.4,182.2
				L658.4,182.2z"/>
			<path class="st0" d="M659.8,180.8c3.9,0,7,3.1,7,7v46.7c0,3.1-2.5,5.6-5.6,5.6H507.8c-3.9,0-7-3.1-7-7v-174c0-3.9,3.1-7,7-7
				h153.4c3.1,0,5.6,2.5,5.6,5.6v46.7c0,3.9-3.1,7-7,7h-74.6v9.9h74.6c3.9,0,7,3.1,7,7v35.5c0,4.2-3.1,7.3-7,7.3h-74.6v9.6
				L659.8,180.8L659.8,180.8z"/>
			<path class="st0" d="M661.1,179.5c3.9,0,7,3.1,7,7v46.7c0,3.1-2.5,5.6-5.6,5.6H509.1c-3.9,0-7-3.1-7-7v-174c0-3.9,3.1-7,7-7
				h153.4c3.1,0,5.6,2.5,5.6,5.6v46.7c0,3.9-3.1,7-7,7h-74.6v9.9h74.6c3.9,0,7,3.1,7,7v35.5c0,4.2-3.1,7.3-7,7.3h-74.6v9.6
				L661.1,179.5L661.1,179.5z"/>
			<path class="st0" d="M662.5,178.1c3.9,0,7,3.1,7,7v46.7c0,3.1-2.5,5.6-5.6,5.6H510.5c-3.9,0-7-3.1-7-7v-174c0-3.9,3.1-7,7-7
				h153.4c3.1,0,5.6,2.5,5.6,5.6v46.7c0,3.9-3.1,7-7,7h-74.6v9.9h74.6c3.9,0,7,3.1,7,7v35.5c0,4.2-3.1,7.3-7,7.3h-74.6v9.6
				L662.5,178.1L662.5,178.1z"/>
			<path class="st0" d="M663.9,176.7c3.9,0,7,3.1,7,7v46.7c0,3.1-2.5,5.6-5.6,5.6H511.9c-3.9,0-7-3.1-7-7v-174c0-3.9,3.1-7,7-7
				h153.4c3.1,0,5.6,2.5,5.6,5.6v46.7c0,3.9-3.1,7-7,7h-74.6v9.9h74.6c3.9,0,7,3.1,7,7v35.5c0,4.2-3.1,7.3-7,7.3h-74.6v9.6
				L663.9,176.7L663.9,176.7z"/>
			<path class="st0" d="M665.2,175.4c3.9,0,7,3.1,7,7v46.7c0,3.1-2.5,5.6-5.6,5.6H513.2c-3.9,0-7-3.1-7-7v-174c0-3.9,3.1-7,7-7
				h153.4c3.1,0,5.6,2.5,5.6,5.6v46.7c0,3.9-3.1,7-7,7h-74.6v9.9h74.6c3.9,0,7,3.1,7,7v35.5c0,4.2-3.1,7.3-7,7.3h-74.6v9.6
				L665.2,175.4L665.2,175.4z"/>
			<path class="st0" d="M666.6,174c3.9,0,7,3.1,7,7v46.7c0,3.1-2.5,5.6-5.6,5.6H514.6c-3.9,0-7-3.1-7-7v-174c0-3.9,3.1-7,7-7H668
				c3.1,0,5.6,2.5,5.6,5.6v46.7c0,3.9-3.1,7-7,7H592v9.9h74.6c3.9,0,7,3.1,7,7v35.5c0,4.2-3.1,7.3-7,7.3H592v9.6L666.6,174
				L666.6,174z"/>
			<path class="st0" d="M668,172.6c3.9,0,7,3.1,7,7v46.7c0,3.1-2.5,5.6-5.6,5.6H516c-3.9,0-7-3.1-7-7V51c0-3.9,3.1-7,7-7h153.4
				c3.1,0,5.6,2.5,5.6,5.6v46.7c0,3.9-3.1,7-7,7h-74.6v9.9H668c3.9,0,7,3.1,7,7v35.5c0,4.2-3.1,7.3-7,7.3h-74.6v9.6L668,172.6
				L668,172.6z"/>
			<path class="st0" d="M669.3,171.3c3.9,0,7,3.1,7,7V225c0,3.1-2.5,5.6-5.6,5.6H517.3c-3.9,0-7-3.1-7-7v-174c0-3.9,3.1-7,7-7h153.4
				c3.1,0,5.6,2.5,5.6,5.6V95c0,3.9-3.1,7-7,7h-74.6v9.9h74.6c3.9,0,7,3.1,7,7v35.5c0,4.2-3.1,7.3-7,7.3h-74.6v9.6L669.3,171.3
				L669.3,171.3z"/>
			<path class="st0" d="M670.7,169.9c3.9,0,7,3.1,7,7v46.7c0,3.1-2.5,5.6-5.6,5.6H518.7c-3.9,0-7-3.1-7-7v-174c0-3.9,3.1-7,7-7
				h153.4c3.1,0,5.6,2.5,5.6,5.6v46.7c0,3.9-3.1,7-7,7h-74.6v9.9h74.6c3.9,0,7,3.1,7,7V153c0,4.2-3.1,7.3-7,7.3h-74.6v9.6
				L670.7,169.9L670.7,169.9z"/>
			<path class="st0" d="M672.1,168.5c3.9,0,7,3.1,7,7v46.7c0,3.1-2.5,5.6-5.6,5.6H520.1c-3.9,0-7-3.1-7-7v-174c0-3.9,3.1-7,7-7
				h153.4c3.1,0,5.6,2.5,5.6,5.6v46.7c0,3.9-3.1,7-7,7h-74.6v9.9h74.6c3.9,0,7,3.1,7,7v35.5c0,4.2-3.1,7.3-7,7.3h-74.6v9.6
				L672.1,168.5L672.1,168.5z"/>
			<path class="st0" d="M673.4,167.2c3.9,0,7,3.1,7,7v46.7c0,3.1-2.5,5.6-5.6,5.6H521.4c-3.9,0-7-3.1-7-7v-174c0-3.9,3.1-7,7-7
				h153.4c3.1,0,5.6,2.5,5.6,5.6v46.7c0,3.9-3.1,7-7,7h-74.6v9.9h74.6c3.9,0,7,3.1,7,7v35.5c0,4.2-3.1,7.3-7,7.3h-74.6v9.6
				L673.4,167.2L673.4,167.2z"/>
		</g>
		<path class="st1" d="M673.4,167.2c3.9,0,7,3.1,7,7v46.7c0,3.1-2.5,5.6-5.6,5.6H521.4c-3.9,0-7-3.1-7-7v-174c0-3.9,3.1-7,7-7h153.4
			c3.1,0,5.6,2.5,5.6,5.6v46.7c0,3.9-3.1,7-7,7h-74.6v9.9h74.6c3.9,0,7,3.1,7,7v35.5c0,4.2-3.1,7.3-7,7.3h-74.6v9.6L673.4,167.2
			L673.4,167.2z"/>
	</g>
	<g>
		<g>
			<path class="st0" d="M467.6,253.9h-76.8c-3.9,0-7-3.1-7-7v-62.5H373v62.5c0,3.9-3.1,7-7,7h-74.9c-4.2,0-7.3-3.1-7.3-7v-174
				c0-3.9,3.1-7,7-7h74.9c4.2,0,7.3,3.1,7.3,7v62.2h10.7V72.9c0-3.9,3.1-7,7-7h76.8c3.9,0,7,3.1,7,7v173.7
				C474.6,250.8,471.6,253.9,467.6,253.9z"/>
			<path class="st0" d="M469,252.6h-76.8c-3.9,0-7-3.1-7-7V183h-10.7v62.5c0,3.9-3.1,7-7,7h-74.9c-4.2,0-7.3-3.1-7.3-7v-174
				c0-3.9,3.1-7,7-7h74.9c4.2,0,7.3,3.1,7.3,7v62.2h10.7V71.6c0-3.9,3.1-7,7-7H469c3.9,0,7,3.1,7,7v173.7
				C476,249.5,472.9,252.6,469,252.6z"/>
			<path class="st0" d="M470.3,251.2h-76.8c-3.9,0-7-3.1-7-7v-62.5h-10.7v62.5c0,3.9-3.1,7-7,7h-74.9c-4.2,0-7.3-3.1-7.3-7v-174
				c0-3.9,3.1-7,7-7h74.9c4.2,0,7.3,3.1,7.3,7v62.2h10.7V70.2c0-3.9,3.1-7,7-7h76.8c3.9,0,7,3.1,7,7v173.7
				C477.4,248.1,474.3,251.2,470.3,251.2z"/>
			<path class="st0" d="M471.7,249.8h-76.8c-3.9,0-7-3.1-7-7v-62.5h-10.7v62.5c0,3.9-3.1,7-7,7h-74.9c-4.2,0-7.3-3.1-7.3-7v-174
				c0-3.9,3.1-7,7-7h74.9c4.2,0,7.3,3.1,7.3,7V131h10.7V68.8c0-3.9,3.1-7,7-7h76.8c3.9,0,7,3.1,7,7v173.7
				C478.7,246.7,475.7,249.8,471.7,249.8z"/>
			<path class="st0" d="M473.1,248.4h-76.8c-3.9,0-7-3.1-7-7v-62.5h-10.7v62.5c0,3.9-3.1,7-7,7h-74.9c-4.2,0-7.3-3.1-7.3-7v-174
				c0-3.9,3.1-7,7-7h74.9c4.2,0,7.3,3.1,7.3,7v62.2h10.7V67.5c0-3.9,3.1-7,7-7h76.8c3.9,0,7,3.1,7,7v173.7
				C480.1,245.4,477,248.4,473.1,248.4z"/>
			<path class="st0" d="M474.5,247.1h-76.8c-3.9,0-7-3.1-7-7v-62.5h-10.7V240c0,3.9-3.1,7-7,7H298c-4.2,0-7.3-3.1-7.3-7v-174
				c0-3.9,3.1-7,7-7h74.9c4.2,0,7.3,3.1,7.3,7v62.2h10.7V66.1c0-3.9,3.1-7,7-7h76.8c3.9,0,7,3.1,7,7v173.7
				C481.5,244,478.4,247.1,474.5,247.1z"/>
			<path class="st0" d="M475.8,245.7H399c-3.9,0-7-3.1-7-7v-62.5h-10.7v62.5c0,3.9-3.1,7-7,7h-74.9c-4.2,0-7.3-3.1-7.3-7v-174
				c0-3.9,3.1-7,7-7h74.9c4.2,0,7.3,3.1,7.3,7v62.2h10.7V64.7c0-3.9,3.1-7,7-7h76.8c3.9,0,7,3.1,7,7v173.7
				C482.9,242.6,479.8,245.7,475.8,245.7z"/>
			<path class="st0" d="M477.2,244.3h-76.8c-3.9,0-7-3.1-7-7v-62.5h-10.7v62.5c0,3.9-3.1,7-7,7h-74.9c-4.2,0-7.3-3.1-7.3-7v-174
				c0-3.9,3.1-7,7-7h74.9c4.2,0,7.3,3.1,7.3,7v62.2h10.7V63.3c0-3.9,3.1-7,7-7h76.8c3.9,0,7,3.1,7,7V237
				C484.2,241.2,481.1,244.3,477.2,244.3z"/>
			<path class="st0" d="M478.6,243h-76.8c-3.9,0-7-3.1-7-7v-62.5H384v62.5c0,3.9-3.1,7-7,7h-74.9c-4.2,0-7.3-3.1-7.3-7V62
				c0-3.9,3.1-7,7-7h74.9c4.2,0,7.3,3.1,7.3,7v62.2h10.7V62c0-3.9,3.1-7,7-7h76.8c3.9,0,7,3.1,7,7v173.7
				C485.6,239.9,482.5,243,478.6,243z"/>
			<path class="st0" d="M479.9,241.6h-76.8c-3.9,0-7-3.1-7-7v-62.5h-10.7v62.5c0,3.9-3.1,7-7,7h-74.9c-4.2,0-7.3-3.1-7.3-7v-174
				c0-3.9,3.1-7,7-7H378c4.2,0,7.3,3.1,7.3,7v62.2h10.7V60.6c0-3.9,3.1-7,7-7h76.8c3.9,0,7,3.1,7,7v173.7
				C487,238.5,483.9,241.6,479.9,241.6z"/>
			<path class="st0" d="M481.3,240.2h-76.8c-3.9,0-7-3.1-7-7v-62.5h-10.7v62.5c0,3.9-3.1,7-7,7h-74.9c-4.2,0-7.3-3.1-7.3-7v-174
				c0-3.9,3.1-7,7-7h74.9c4.2,0,7.3,3.1,7.3,7v62.2h10.7V59.2c0-3.9,3.1-7,7-7h76.8c3.9,0,7,3.1,7,7v173.7
				C488.3,237.1,485.2,240.2,481.3,240.2z"/>
			<path class="st0" d="M482.7,238.9h-76.8c-3.9,0-7-3.1-7-7v-62.5h-10.7v62.5c0,3.9-3.1,7-7,7h-74.9c-4.2,0-7.3-3.1-7.3-7v-174
				c0-3.9,3.1-7,7-7h74.9c4.2,0,7.3,3.1,7.3,7v62.2h10.7V57.9c0-3.9,3.1-7,7-7h76.8c3.9,0,7,3.1,7,7v173.7
				C489.7,235.8,486.6,238.9,482.7,238.9z"/>
			<path class="st0" d="M484,237.5h-76.8c-3.9,0-7-3.1-7-7V168h-10.7v62.5c0,3.9-3.1,7-7,7h-74.9c-4.2,0-7.3-3.1-7.3-7v-174
				c0-3.9,3.1-7,7-7h74.9c4.2,0,7.3,3.1,7.3,7v62.2h10.7V56.5c0-3.9,3.1-7,7-7H484c3.9,0,7,3.1,7,7v173.7
				C491.1,234.4,488,237.5,484,237.5z"/>
			<path class="st0" d="M485.4,236.1h-76.8c-3.9,0-7-3.1-7-7v-62.5h-10.7v62.5c0,3.9-3.1,7-7,7h-74.9c-4.2,0-7.3-3.1-7.3-7v-174
				c0-3.9,3.1-7,7-7h74.9c4.2,0,7.3,3.1,7.3,7v62.2h10.7V55.1c0-3.9,3.1-7,7-7h76.8c3.9,0,7,3.1,7,7v173.7
				C492.4,233,489.3,236.1,485.4,236.1z"/>
			<path class="st0" d="M486.8,234.8h-76.8c-3.9,0-7-3.1-7-7v-62.5h-10.7v62.5c0,3.9-3.1,7-7,7h-74.9c-4.2,0-7.3-3.1-7.3-7v-174
				c0-3.9,3.1-7,7-7h74.9c4.2,0,7.3,3.1,7.3,7V116h10.7V53.8c0-3.9,3.1-7,7-7h76.8c3.9,0,7,3.1,7,7v173.7
				C493.8,231.7,490.7,234.8,486.8,234.8z"/>
			<path class="st0" d="M488.1,233.4h-76.8c-3.9,0-7-3.1-7-7v-62.5h-10.7v62.5c0,3.9-3.1,7-7,7h-74.9c-4.2,0-7.3-3.1-7.3-7v-174
				c0-3.9,3.1-7,7-7h74.9c4.2,0,7.3,3.1,7.3,7v62.2h10.7V52.4c0-3.9,3.1-7,7-7h76.8c3.9,0,7,3.1,7,7v173.7
				C495.2,230.3,492.1,233.4,488.1,233.4z"/>
			<path class="st0" d="M489.5,232h-76.8c-3.9,0-7-3.1-7-7v-62.5h-10.7V225c0,3.9-3.1,7-7,7H313c-4.2,0-7.3-3.1-7.3-7V51
				c0-3.9,3.1-7,7-7h74.9c4.2,0,7.3,3.1,7.3,7v62.2h10.7V51c0-3.9,3.1-7,7-7h76.8c3.9,0,7,3.1,7,7v173.7
				C496.5,228.9,493.4,232,489.5,232z"/>
			<path class="st0" d="M490.9,230.7H414c-3.9,0-7-3.1-7-7v-62.5h-10.7v62.5c0,3.9-3.1,7-7,7h-74.9c-4.2,0-7.3-3.1-7.3-7v-174
				c0-3.9,3.1-7,7-7H389c4.2,0,7.3,3.1,7.3,7v62.2H407V49.7c0-3.9,3.1-7,7-7h76.8c3.9,0,7,3.1,7,7v173.7
				C497.9,227.6,494.8,230.7,490.9,230.7z"/>
			<path class="st0" d="M492.2,229.3h-76.8c-3.9,0-7-3.1-7-7v-62.5h-10.7v62.5c0,3.9-3.1,7-7,7h-74.9c-4.2,0-7.3-3.1-7.3-7v-174
				c0-3.9,3.1-7,7-7h74.9c4.2,0,7.3,3.1,7.3,7v62.2h10.7V48.3c0-3.9,3.1-7,7-7h76.8c3.9,0,7,3.1,7,7V222
				C499.3,226.2,496.2,229.3,492.2,229.3z"/>
			<path class="st0" d="M493.6,227.9h-76.8c-3.9,0-7-3.1-7-7v-62.5H399v62.5c0,3.9-3.1,7-7,7h-74.9c-4.2,0-7.3-3.1-7.3-7v-174
				c0-3.9,3.1-7,7-7h74.9c4.2,0,7.3,3.1,7.3,7v62.2h10.7V46.9c0-3.9,3.1-7,7-7h76.8c3.9,0,7,3.1,7,7v173.7
				C500.6,224.8,497.6,227.9,493.6,227.9z"/>
			<path class="st0" d="M495,226.5h-76.8c-3.9,0-7-3.1-7-7V157h-10.7v62.5c0,3.9-3.1,7-7,7h-74.9c-4.2,0-7.3-3.1-7.3-7v-174
				c0-3.9,3.1-7,7-7h74.9c4.2,0,7.3,3.1,7.3,7v62.2h10.7V45.6c0-3.9,3.1-7,7-7H495c3.9,0,7,3.1,7,7v173.7
				C502,223.5,498.9,226.5,495,226.5z"/>
		</g>
		<path class="st1" d="M495,226.5h-76.8c-3.9,0-7-3.1-7-7V157h-10.7v62.5c0,3.9-3.1,7-7,7h-74.9c-4.2,0-7.3-3.1-7.3-7v-174
			c0-3.9,3.1-7,7-7h74.9c4.2,0,7.3,3.1,7.3,7v62.2h10.7V45.6c0-3.9,3.1-7,7-7H495c3.9,0,7,3.1,7,7v173.7
			C502,223.5,498.9,226.5,495,226.5z"/>
	</g>
	<g>
		<g>
			<path class="st0" d="M1557.5,65.9c16.6,0,28.7,12.1,28.7,28.7v159.3h-50.1c-16.6,0.3-28.7-12.1-28.7-28.7v-79.9h-5.6
				c-3.4,0-5.4,3.7-5.4,8.7l-0.3,99.9h-49.3c-16.6,0.3-28.7-12.1-28.7-28.7v-79.9h-5.6c-3.7,1.4-5.4,3.7-5.4,8.7v99.9h-71.5
				c-3.9,0.3-7-3.1-7-7V94.6c0-16.6,12.1-28.7,28.7-28.7h104.7l-4.2,29.3c-0.6,3.1,1.1,6.2,4.2,6.8c2.8,0.3,5.4-1.7,5.9-4.8
				l4.5-26.7c0.6-2.8,2.8-4.5,5.4-4.5H1557.5z"/>
			<path class="st0" d="M1558.9,64.5c16.6,0,28.7,12.1,28.7,28.7v159.3h-50.1c-16.6,0.3-28.7-12.1-28.7-28.7v-79.9h-5.6
				c-3.4,0-5.4,3.7-5.4,8.7l-0.3,99.9h-49.3c-16.6,0.3-28.7-12.1-28.7-28.7v-79.9h-5.6c-3.7,1.4-5.4,3.7-5.4,8.7v99.9h-71.5
				c-3.9,0.3-7-3.1-7-7V93.2c0-16.6,12.1-28.7,28.7-28.7h104.7l-4.2,29.3c-0.6,3.1,1.1,6.2,4.2,6.8c2.8,0.3,5.4-1.7,5.9-4.8
				l4.5-26.7c0.6-2.8,2.8-4.5,5.4-4.5H1558.9z"/>
			<path class="st0" d="M1560.3,63.2c16.6,0,28.7,12.1,28.7,28.7v159.3h-50.1c-16.6,0.3-28.7-12.1-28.7-28.7v-79.9h-5.6
				c-3.4,0-5.4,3.7-5.4,8.7l-0.3,99.9h-49.3c-16.6,0.3-28.7-12.1-28.7-28.7v-79.9h-5.6c-3.7,1.4-5.4,3.7-5.4,8.7v99.9h-71.5
				c-3.9,0.3-7-3.1-7-7V91.9c0-16.6,12.1-28.7,28.7-28.7h104.7l-4.2,29.3c-0.6,3.1,1.1,6.2,4.2,6.8c2.8,0.3,5.4-1.7,5.9-4.8
				l4.5-26.7c0.6-2.8,2.8-4.5,5.4-4.5H1560.3z"/>
			<path class="st0" d="M1561.6,61.8c16.6,0,28.7,12.1,28.7,28.7v159.3h-50.1c-16.6,0.3-28.7-12.1-28.7-28.7v-79.9h-5.6
				c-3.4,0-5.4,3.7-5.4,8.7l-0.3,99.9H1451c-16.6,0.3-28.7-12.1-28.7-28.7v-79.9h-5.6c-3.7,1.4-5.4,3.7-5.4,8.7v99.9h-71.5
				c-3.9,0.3-7-3.1-7-7V90.5c0-16.6,12.1-28.7,28.7-28.7h104.7l-4.2,29.3c-0.6,3.1,1.1,6.2,4.2,6.8c2.8,0.3,5.4-1.7,5.9-4.8
				l4.5-26.7c0.6-2.8,2.8-4.5,5.4-4.5H1561.6z"/>
			<path class="st0" d="M1563,60.4c16.6,0,28.7,12.1,28.7,28.7v159.3h-50.1c-16.6,0.3-28.7-12.1-28.7-28.7v-79.9h-5.6
				c-3.4,0-5.4,3.7-5.4,8.7l-0.3,99.9h-49.3c-16.6,0.3-28.7-12.1-28.7-28.7v-79.9h-5.6c-3.7,1.4-5.4,3.7-5.4,8.7v99.9h-71.5
				c-3.9,0.3-7-3.1-7-7V89.1c0-16.6,12.1-28.7,28.7-28.7h104.7l-4.2,29.3c-0.6,3.1,1.1,6.2,4.2,6.8c2.8,0.3,5.4-1.7,5.9-4.8
				l4.5-26.7c0.6-2.8,2.8-4.5,5.4-4.5H1563z"/>
			<path class="st0" d="M1564.4,59c16.6,0,28.7,12.1,28.7,28.7v159.3H1543c-16.6,0.3-28.7-12.1-28.7-28.7v-79.9h-5.6
				c-3.4,0-5.4,3.7-5.4,8.7l-0.3,99.9h-49.3c-16.6,0.3-28.7-12.1-28.7-28.7v-79.9h-5.6c-3.7,1.4-5.4,3.7-5.4,8.7v99.9h-71.5
				c-3.9,0.3-7-3.1-7-7V87.8c0-16.6,12.1-28.7,28.7-28.7h104.7l-4.2,29.3c-0.6,3.1,1.1,6.2,4.2,6.8c2.8,0.3,5.4-1.7,5.9-4.8
				l4.5-26.7c0.6-2.8,2.8-4.5,5.4-4.5H1564.4z"/>
			<path class="st0" d="M1565.7,57.7c16.6,0,28.7,12.1,28.7,28.7v159.3h-50.1c-16.6,0.3-28.7-12.1-28.7-28.7V137h-5.6
				c-3.4,0-5.4,3.7-5.4,8.7l-0.3,99.9h-49.3c-16.6,0.3-28.7-12.1-28.7-28.7V137h-5.6c-3.7,1.4-5.4,3.7-5.4,8.7v99.9h-71.5
				c-3.9,0.3-7-3.1-7-7V86.4c0-16.6,12.1-28.7,28.7-28.7h104.7l-4.2,29.3c-0.6,3.1,1.1,6.2,4.2,6.8c2.8,0.3,5.4-1.7,5.9-4.8
				l4.5-26.7c0.6-2.8,2.8-4.5,5.4-4.5H1565.7z"/>
			<path class="st0" d="M1567.1,56.3c16.6,0,28.7,12.1,28.7,28.7v159.3h-50.1c-16.6,0.3-28.7-12.1-28.7-28.7v-79.9h-5.6
				c-3.4,0-5.4,3.7-5.4,8.7l-0.3,99.9h-49.3c-16.6,0.3-28.7-12.1-28.7-28.7v-79.9h-5.6c-3.7,1.4-5.4,3.7-5.4,8.7v99.9h-71.5
				c-3.9,0.3-7-3.1-7-7V85c0-16.6,12.1-28.7,28.7-28.7h104.7l-4.2,29.3c-0.6,3.1,1.1,6.2,4.2,6.8c2.8,0.3,5.4-1.7,5.9-4.8l4.5-26.7
				c0.6-2.8,2.8-4.5,5.4-4.5H1567.1z"/>
			<path class="st0" d="M1568.5,54.9c16.6,0,28.7,12.1,28.7,28.7V243h-50.1c-16.6,0.3-28.7-12.1-28.7-28.7v-79.9h-5.6
				c-3.4,0-5.4,3.7-5.4,8.7l-0.3,99.9h-49.3c-16.6,0.3-28.7-12.1-28.7-28.7v-79.9h-5.6c-3.7,1.4-5.4,3.7-5.4,8.7V243h-71.5
				c-3.9,0.3-7-3.1-7-7V83.7c0-16.6,12.1-28.7,28.7-28.7H1473l-4.2,29.3c-0.6,3.1,1.1,6.2,4.2,6.8c2.8,0.3,5.4-1.7,5.9-4.8l4.5-26.7
				c0.6-2.8,2.8-4.5,5.4-4.5H1568.5z"/>
			<path class="st0" d="M1569.8,53.6c16.6,0,28.7,12.1,28.7,28.7v159.3h-50.1c-16.6,0.3-28.7-12.1-28.7-28.7v-79.9h-5.6
				c-3.4,0-5.4,3.7-5.4,8.7l-0.3,99.9h-49.3c-16.6,0.3-28.7-12.1-28.7-28.7v-79.9h-5.6c-3.7,1.4-5.4,3.7-5.4,8.7v99.9H1348
				c-3.9,0.3-7-3.1-7-7V82.3c0-16.6,12.1-28.7,28.7-28.7h104.7l-4.2,29.3c-0.6,3.1,1.1,6.2,4.2,6.8c2.8,0.3,5.4-1.7,5.9-4.8
				l4.5-26.7c0.6-2.8,2.8-4.5,5.4-4.5H1569.8z"/>
			<path class="st0" d="M1571.2,52.2c16.6,0,28.7,12.1,28.7,28.7v159.3h-50.1c-16.6,0.3-28.7-12.1-28.7-28.7v-79.9h-5.6
				c-3.4,0-5.4,3.7-5.4,8.7l-0.3,99.9h-49.3c-16.6,0.3-28.7-12.1-28.7-28.7v-79.9h-5.6c-3.7,1.4-5.4,3.7-5.4,8.7v99.9h-71.5
				c-3.9,0.3-7-3.1-7-7V80.9c0-16.6,12.1-28.7,28.7-28.7h104.7l-4.2,29.3c-0.6,3.1,1.1,6.2,4.2,6.8c2.8,0.3,5.4-1.7,5.9-4.8
				l4.5-26.7c0.6-2.8,2.8-4.5,5.4-4.5H1571.2z"/>
			<path class="st0" d="M1572.6,50.8c16.6,0,28.7,12.1,28.7,28.7v159.3h-50.1c-16.6,0.3-28.7-12.1-28.7-28.7v-79.9h-5.6
				c-3.4,0-5.4,3.7-5.4,8.7l-0.3,99.9h-49.3c-16.6,0.3-28.7-12.1-28.7-28.7v-79.9h-5.6c-3.7,1.4-5.4,3.7-5.4,8.7v99.9h-71.5
				c-3.9,0.3-7-3.1-7-7V79.6c0-16.6,12.1-28.7,28.7-28.7h104.7l-4.2,29.3c-0.6,3.1,1.1,6.2,4.2,6.8c2.8,0.3,5.4-1.7,5.9-4.8
				l4.5-26.7c0.6-2.8,2.8-4.5,5.4-4.5H1572.6z"/>
			<path class="st0" d="M1573.9,49.5c16.6,0,28.7,12.1,28.7,28.7v159.3h-50.1c-16.6,0.3-28.7-12.1-28.7-28.7v-79.9h-5.6
				c-3.4,0-5.4,3.7-5.4,8.7l-0.3,99.9h-49.3c-16.6,0.3-28.7-12.1-28.7-28.7v-79.9h-5.6c-3.7,1.4-5.4,3.7-5.4,8.7v99.9h-71.5
				c-3.9,0.3-7-3.1-7-7V78.2c0-16.6,12.1-28.7,28.7-28.7h104.7l-4.2,29.3c-0.6,3.1,1.1,6.2,4.2,6.8c2.8,0.3,5.4-1.7,5.9-4.8
				l4.5-26.7c0.6-2.8,2.8-4.5,5.4-4.5H1573.9z"/>
			<path class="st0" d="M1575.3,48.1c16.6,0,28.7,12.1,28.7,28.7v159.3h-50.1c-16.6,0.3-28.7-12.1-28.7-28.7v-79.9h-5.6
				c-3.4,0-5.4,3.7-5.4,8.7l-0.3,99.9h-49.3c-16.6,0.3-28.7-12.1-28.7-28.7v-79.9h-5.6c-3.7,1.4-5.4,3.7-5.4,8.7v99.9h-71.5
				c-3.9,0.3-7-3.1-7-7V76.8c0-16.6,12.1-28.7,28.7-28.7h104.7l-4.2,29.3c-0.6,3.1,1.1,6.2,4.2,6.8c2.8,0.3,5.4-1.7,5.9-4.8
				l4.5-26.7c0.6-2.8,2.8-4.5,5.4-4.5H1575.3z"/>
			<path class="st0" d="M1576.7,46.7c16.6,0,28.7,12.1,28.7,28.7v159.3h-50.1c-16.6,0.3-28.7-12.1-28.7-28.7v-79.9h-5.6
				c-3.4,0-5.4,3.7-5.4,8.7l-0.3,99.9h-49.3c-16.6,0.3-28.7-12.1-28.7-28.7v-79.9h-5.6c-3.7,1.4-5.4,3.7-5.4,8.7v99.9h-71.5
				c-3.9,0.3-7-3.1-7-7V75.4c0-16.6,12.1-28.7,28.7-28.7h104.7L1477,76c-0.6,3.1,1.1,6.2,4.2,6.8c2.8,0.3,5.4-1.7,5.9-4.8l4.5-26.7
				c0.6-2.8,2.8-4.5,5.4-4.5H1576.7z"/>
			<path class="st0" d="M1578.1,45.4c16.6,0,28.7,12.1,28.7,28.7v159.3h-50.1c-16.6,0.3-28.7-12.1-28.7-28.7v-79.9h-5.6
				c-3.4,0-5.4,3.7-5.4,8.7l-0.3,99.9h-49.3c-16.6,0.3-28.7-12.1-28.7-28.7v-79.9h-5.6c-3.7,1.4-5.4,3.7-5.4,8.7v99.9h-71.5
				c-3.9,0.3-7-3.1-7-7V74.1c0-16.6,12.1-28.7,28.7-28.7h104.7l-4.2,29.3c-0.6,3.1,1.1,6.2,4.2,6.8c2.8,0.3,5.4-1.7,5.9-4.8
				l4.5-26.7c0.6-2.8,2.8-4.5,5.4-4.5H1578.1z"/>
			<path class="st0" d="M1579.4,44c16.6,0,28.7,12.1,28.7,28.7V232H1558c-16.6,0.3-28.7-12.1-28.7-28.7v-79.9h-5.6
				c-3.4,0-5.4,3.7-5.4,8.7l-0.3,99.9h-49.3c-16.6,0.3-28.7-12.1-28.7-28.7v-79.9h-5.6c-3.7,1.4-5.4,3.7-5.4,8.7V232h-71.5
				c-3.9,0.3-7-3.1-7-7V72.7c0-16.6,12.1-28.7,28.7-28.7H1484l-4.2,29.3c-0.6,3.1,1.1,6.2,4.2,6.8c2.8,0.3,5.4-1.7,5.9-4.8l4.5-26.7
				c0.6-2.8,2.8-4.5,5.4-4.5H1579.4z"/>
			<path class="st0" d="M1580.8,42.6c16.6,0,28.7,12.1,28.7,28.7v159.3h-50.1c-16.6,0.3-28.7-12.1-28.7-28.7V122h-5.6
				c-3.4,0-5.4,3.7-5.4,8.7l-0.3,99.9h-49.3c-16.6,0.3-28.7-12.1-28.7-28.7V122h-5.6c-3.7,1.4-5.4,3.7-5.4,8.7v99.9H1359
				c-3.9,0.3-7-3.1-7-7V71.3c0-16.6,12.1-28.7,28.7-28.7h104.7l-4.2,29.3c-0.6,3.1,1.1,6.2,4.2,6.8c2.8,0.3,5.4-1.7,5.9-4.8
				l4.5-26.7c0.6-2.8,2.8-4.5,5.4-4.5H1580.8z"/>
			<path class="st0" d="M1582.2,41.3c16.6,0,28.7,12.1,28.7,28.7v159.3h-50.1c-16.6,0.3-28.7-12.1-28.7-28.7v-79.9h-5.6
				c-3.4,0-5.4,3.7-5.4,8.7l-0.3,99.9h-49.3c-16.6,0.3-28.7-12.1-28.7-28.7v-79.9h-5.6c-3.7,1.4-5.4,3.7-5.4,8.7v99.9h-71.5
				c-3.9,0.3-7-3.1-7-7V70c0-16.6,12.1-28.7,28.7-28.7h104.7l-4.2,29.3c-0.6,3.1,1.1,6.2,4.2,6.8c2.8,0.3,5.4-1.7,5.9-4.8l4.5-26.7
				c0.6-2.8,2.8-4.5,5.4-4.5H1582.2z"/>
			<path class="st0" d="M1583.5,39.9c16.6,0,28.7,12.1,28.7,28.7v159.3h-50.1c-16.6,0.3-28.7-12.1-28.7-28.7v-79.9h-5.6
				c-3.4,0-5.4,3.7-5.4,8.7l-0.3,99.9h-49.3c-16.6,0.3-28.7-12.1-28.7-28.7v-79.9h-5.6c-3.7,1.4-5.4,3.7-5.4,8.7v99.9h-71.5
				c-3.9,0.3-7-3.1-7-7V68.6c0-16.6,12.1-28.7,28.7-28.7h104.7l-4.2,29.3c-0.6,3.1,1.1,6.2,4.2,6.8c2.8,0.3,5.4-1.7,5.9-4.8
				l4.5-26.7c0.6-2.8,2.8-4.5,5.4-4.5H1583.5z"/>
			<path class="st0" d="M1584.9,38.5c16.6,0,28.7,12.1,28.7,28.7v159.3h-50.1c-16.6,0.3-28.7-12.1-28.7-28.7v-79.9h-5.6
				c-3.4,0-5.4,3.7-5.4,8.7l-0.3,99.9h-49.3c-16.6,0.3-28.7-12.1-28.7-28.7v-79.9h-5.6c-3.7,1.4-5.4,3.7-5.4,8.7v99.9h-71.5
				c-3.9,0.3-7-3.1-7-7V67.2c0-16.6,12.1-28.7,28.7-28.7h104.7l-4.2,29.3c-0.6,3.1,1.1,6.2,4.2,6.8c2.8,0.3,5.4-1.7,5.9-4.8
				l4.5-26.7c0.6-2.8,2.8-4.5,5.4-4.5H1584.9z"/>
		</g>
		<path class="st1" d="M1584.9,38.5c16.6,0,28.7,12.1,28.7,28.7v159.3h-50.1c-16.6,0.3-28.7-12.1-28.7-28.7v-79.9h-5.6
			c-3.4,0-5.4,3.7-5.4,8.7l-0.3,99.9h-49.3c-16.6,0.3-28.7-12.1-28.7-28.7v-79.9h-5.6c-3.7,1.4-5.4,3.7-5.4,8.7v99.9h-71.5
			c-3.9,0.3-7-3.1-7-7V67.2c0-16.6,12.1-28.7,28.7-28.7h104.7l-4.2,29.3c-0.6,3.1,1.1,6.2,4.2,6.8c2.8,0.3,5.4-1.7,5.9-4.8l4.5-26.7
			c0.6-2.8,2.8-4.5,5.4-4.5H1584.9z"/>
	</g>
	<g>
		<g>
			<path class="st0" d="M61.4,253.9c-37.7,0-47.6-19.4-47.6-59.1V94.6c0-16.6,12.1-28.7,28.7-28.7h50.1v118.5h5.6
				c3.4,0,5.4-3.7,5.4-8.7l0.3-81.1c0-16.6,12.1-28.7,28.7-28.7h49.3v118.5h5.6c3.7-1.4,5.4-3.7,5.4-8.7V94.6
				c0-16.6,12.1-28.7,28.7-28.7h49.8v130.6c0,33.2-10.7,57.4-43.9,57.4h-85.3l4.2-29.3c0.6-3.1-1.1-6.2-4.2-6.8
				c-2.8-0.3-5.4,1.7-5.9,4.8l-4.5,26.7c-0.6,2.8-2.8,4.5-5.4,4.5L61.4,253.9L61.4,253.9z"/>
			<path class="st0" d="M62.8,252.6c-37.7,0-47.6-19.4-47.6-59.1V93.2c0-16.6,12.1-28.7,28.7-28.7H94V183h5.6c3.4,0,5.4-3.7,5.4-8.7
				l0.3-81.1c0-16.6,12.1-28.7,28.7-28.7h49.3V183h5.6c3.7-1.4,5.4-3.7,5.4-8.7V93.2c0-16.6,12.1-28.7,28.7-28.7h49.8v130.6
				c0,33.2-10.7,57.4-43.9,57.4h-85.3l4.2-29.3c0.6-3.1-1.1-6.2-4.2-6.8c-2.8-0.3-5.4,1.7-5.9,4.8l-4.5,26.7
				c-0.6,2.8-2.8,4.5-5.4,4.5L62.8,252.6L62.8,252.6z"/>
			<path class="st0" d="M64.2,251.2c-37.7,0-47.6-19.4-47.6-59.1V91.9c0-16.6,12.1-28.7,28.7-28.7h50.1v118.5h5.6
				c3.4,0,5.4-3.7,5.4-8.7l0.3-81.1c0-16.6,12.1-28.7,28.7-28.7h49.3v118.5h5.6c3.7-1.4,5.4-3.7,5.4-8.7V91.8
				c0-16.6,12.1-28.7,28.7-28.7h49.8v130.6c0,33.2-10.7,57.4-43.9,57.4H145l4.2-29.3c0.6-3.1-1.1-6.2-4.2-6.8
				c-2.8-0.3-5.4,1.7-5.9,4.8l-4.5,26.7c-0.6,2.8-2.8,4.5-5.4,4.5L64.2,251.2L64.2,251.2z"/>
			<path class="st0" d="M65.5,249.8c-37.7,0-47.6-19.4-47.6-59.1V90.5c0-16.6,12.1-28.7,28.7-28.7h50.1v118.5h5.6
				c3.4,0,5.4-3.7,5.4-8.7l0.3-81.1c0-16.6,12.1-28.7,28.7-28.7H186v118.5h5.6c3.7-1.4,5.4-3.7,5.4-8.7V90.5
				c0-16.6,12.1-28.7,28.7-28.7h49.8v130.6c0,33.2-10.7,57.4-43.9,57.4h-85.3l4.2-29.3c0.6-3.1-1.1-6.2-4.2-6.8
				c-2.8-0.3-5.4,1.7-5.9,4.8l-4.5,26.7c-0.6,2.8-2.8,4.5-5.4,4.5L65.5,249.8L65.5,249.8z"/>
			<path class="st0" d="M66.9,248.4c-37.7,0-47.6-19.4-47.6-59.1V89.1c0-16.6,12.1-28.7,28.7-28.7h50.1v118.5h5.6
				c3.4,0,5.4-3.7,5.4-8.7l0.3-81.1c0-16.6,12.1-28.7,28.7-28.7h49.3v118.5h5.6c3.7-1.4,5.4-3.7,5.4-8.7V89.1
				c0-16.6,12.1-28.7,28.7-28.7h49.8V191c0,33.2-10.7,57.4-43.9,57.4h-85.3l4.2-29.3c0.6-3.1-1.1-6.2-4.2-6.8
				c-2.8-0.3-5.4,1.7-5.9,4.8l-4.5,26.7c-0.6,2.8-2.8,4.5-5.4,4.5L66.9,248.4L66.9,248.4z"/>
			<path class="st0" d="M68.3,247.1c-37.7,0-47.6-19.4-47.6-59.1V87.8C20.7,71.2,32.8,59,49.4,59h50.1v118.5h5.6
				c3.4,0,5.4-3.7,5.4-8.7l0.3-81.1c0-16.6,12.1-28.7,28.7-28.7h49.3v118.5h5.6c3.7-1.4,5.4-3.7,5.4-8.7V87.7
				c0-16.6,12.1-28.7,28.7-28.7h49.8v130.6c0,33.2-10.7,57.4-43.9,57.4h-85.3l4.2-29.3c0.6-3.1-1.1-6.2-4.2-6.8
				c-2.8-0.3-5.4,1.7-5.9,4.8l-4.5,26.7c-0.6,2.8-2.8,4.5-5.4,4.5L68.3,247.1L68.3,247.1z"/>
			<path class="st0" d="M69.6,245.7c-37.7,0-47.6-19.4-47.6-59.1V86.4c0-16.6,12.1-28.7,28.7-28.7h50.1v118.5h5.6
				c3.4,0,5.4-3.7,5.4-8.7l0.3-81.1c0-16.6,12.1-28.7,28.7-28.7h49.3v118.5h5.6c3.7-1.4,5.4-3.7,5.4-8.7V86.4
				c0-16.6,12.1-28.7,28.7-28.7h49.8v130.6c0,33.2-10.7,57.4-43.9,57.4h-85.3l4.2-29.3c0.6-3.1-1.1-6.2-4.2-6.8
				c-2.8-0.3-5.4,1.7-5.9,4.8l-4.5,26.7c-0.6,2.8-2.8,4.5-5.4,4.5L69.6,245.7L69.6,245.7z"/>
			<path class="st0" d="M71,244.3c-37.7,0-47.6-19.4-47.6-59.1V85c0-16.6,12.1-28.7,28.7-28.7h50.1v118.5h5.6c3.4,0,5.4-3.7,5.4-8.7
				l0.3-81.1c0-16.6,12.1-28.7,28.7-28.7h49.3v118.5h5.6c3.7-1.4,5.4-3.7,5.4-8.7V85c0-16.6,12.1-28.7,28.7-28.7H281v130.6
				c0,33.2-10.7,57.4-43.9,57.4h-85.3L156,215c0.6-3.1-1.1-6.2-4.2-6.8c-2.8-0.3-5.4,1.7-5.9,4.8l-4.5,26.7
				c-0.6,2.8-2.8,4.5-5.4,4.5L71,244.3L71,244.3z"/>
			<path class="st0" d="M72.4,243c-37.7,0-47.6-19.4-47.6-59.1V83.7c0-16.6,12.1-28.7,28.7-28.7h50.1v118.5h5.6
				c3.4,0,5.4-3.7,5.4-8.7l0.3-81.1c0-16.6,12.1-28.7,28.7-28.7h49.3v118.5h5.6c3.7-1.4,5.4-3.7,5.4-8.7V83.6
				c0-16.6,12.1-28.7,28.7-28.7h49.8v130.6c0,33.2-10.7,57.4-43.9,57.4h-85.3l4.2-29.3c0.6-3.1-1.1-6.2-4.2-6.8
				c-2.8-0.3-5.4,1.7-5.9,4.8l-4.5,26.7c-0.6,2.8-2.8,4.5-5.4,4.5L72.4,243L72.4,243z"/>
			<path class="st0" d="M73.7,241.6c-37.7,0-47.6-19.4-47.6-59.1V82.3c0-16.6,12.1-28.7,28.7-28.7H105v118.5h5.6
				c3.4,0,5.4-3.7,5.4-8.7l0.3-81.1c0-16.6,12.1-28.7,28.7-28.7h49.3v118.5h5.6c3.7-1.4,5.4-3.7,5.4-8.7v-81
				c0-16.6,12.1-28.7,28.7-28.7h49.8v130.6c0,33.2-10.7,57.4-43.9,57.4h-85.3l4.2-29.3c0.6-3.1-1.1-6.2-4.2-6.8
				c-2.8-0.3-5.4,1.7-5.9,4.8l-4.5,26.7c-0.6,2.8-2.8,4.5-5.4,4.5L73.7,241.6L73.7,241.6z"/>
			<path class="st0" d="M75.1,240.2c-37.7,0-47.6-19.4-47.6-59.1V80.9c0-16.6,12.1-28.7,28.7-28.7h50.1v118.5h5.6
				c3.4,0,5.4-3.7,5.4-8.7l0.3-81.1c0-16.6,12.1-28.7,28.7-28.7h49.3v118.5h5.6c3.7-1.4,5.4-3.7,5.4-8.7v-81
				c0-16.6,12.1-28.7,28.7-28.7h49.8v130.6c0,33.2-10.7,57.4-43.9,57.4h-85.3l4.2-29.3c0.6-3.1-1.1-6.2-4.2-6.8
				c-2.8-0.3-5.4,1.7-5.9,4.8l-4.5,26.7c-0.6,2.8-2.8,4.5-5.4,4.5L75.1,240.2L75.1,240.2z"/>
			<path class="st0" d="M76.5,238.9c-37.7,0-47.6-19.4-47.6-59.1V79.6c0-16.6,12.1-28.7,28.7-28.7h50.1v118.5h5.6
				c3.4,0,5.4-3.7,5.4-8.7l0.3-81.1c0-16.6,12.1-28.7,28.7-28.7H197v118.5h5.6c3.7-1.4,5.4-3.7,5.4-8.7v-81
				c0-16.6,12.1-28.7,28.7-28.7h49.8v130.6c0,33.2-10.7,57.4-43.9,57.4h-85.3l4.2-29.3c0.6-3.1-1.1-6.2-4.2-6.8
				c-2.8-0.3-5.4,1.7-5.9,4.8l-4.5,26.7c-0.6,2.8-2.8,4.5-5.4,4.5L76.5,238.9L76.5,238.9z"/>
			<path class="st0" d="M77.8,237.5c-37.7,0-47.6-19.4-47.6-59.1V78.2c0-16.6,12.1-28.7,28.7-28.7h50.1V168h5.6
				c3.4,0,5.4-3.7,5.4-8.7l0.3-81.1c0-16.6,12.1-28.7,28.7-28.7h49.3V168h5.6c3.7-1.4,5.4-3.7,5.4-8.7v-81
				c0-16.6,12.1-28.7,28.7-28.7h49.8v130.6c0,33.2-10.7,57.4-43.9,57.4h-85.3l4.2-29.3c0.6-3.1-1.1-6.2-4.2-6.8
				c-2.8-0.3-5.4,1.7-5.9,4.8l-4.5,26.7c-0.6,2.8-2.8,4.5-5.4,4.5L77.8,237.5L77.8,237.5z"/>
			<path class="st0" d="M79.2,236.1c-37.7,0-47.6-19.4-47.6-59.1V76.8c0-16.6,12.1-28.7,28.7-28.7h50.1v118.5h5.6
				c3.4,0,5.4-3.7,5.4-8.7l0.3-81.1c0-16.6,12.1-28.7,28.7-28.7h49.3v118.5h5.6c3.7-1.4,5.4-3.7,5.4-8.7v-81
				c0-16.6,12.1-28.7,28.7-28.7h49.8v130.6c0,33.2-10.7,57.4-43.9,57.4H160l4.2-29.3c0.6-3.1-1.1-6.2-4.2-6.8
				c-2.8-0.3-5.4,1.7-5.9,4.8l-4.5,26.7c-0.6,2.8-2.8,4.5-5.4,4.5L79.2,236.1L79.2,236.1z"/>
			<path class="st0" d="M80.6,234.8c-37.7,0-47.6-19.4-47.6-59.1V75.4c0-16.6,12.1-28.7,28.7-28.7h50.1v118.5h5.6
				c3.4,0,5.4-3.7,5.4-8.7l0.3-81.1c0-16.6,12.1-28.7,28.7-28.7h49.3v118.5h5.6c3.7-1.4,5.4-3.7,5.4-8.7v-81
				c0-16.6,12.1-28.7,28.7-28.7h49.8v130.6c0,33.2-10.7,57.4-43.9,57.4h-85.3l4.2-29.3c0.6-3.1-1.1-6.2-4.2-6.8
				c-2.8-0.3-5.4,1.7-5.9,4.8l-4.5,26.7c-0.6,2.8-2.8,4.5-5.4,4.5L80.6,234.8L80.6,234.8z"/>
			<path class="st0" d="M82,233.4c-37.7,0-47.6-19.4-47.6-59.1V74.1c0-16.6,12.1-28.7,28.7-28.7h50.1v118.5h5.6
				c3.4,0,5.4-3.7,5.4-8.7l0.3-81.1c0-16.6,12.1-28.7,28.7-28.7h49.3v118.5h5.6c3.7-1.4,5.4-3.7,5.4-8.7v-81
				c0-16.6,12.1-28.7,28.7-28.7H292V176c0,33.2-10.7,57.4-43.9,57.4h-85.3l4.2-29.3c0.6-3.1-1.1-6.2-4.2-6.8
				c-2.8-0.3-5.4,1.7-5.9,4.8l-4.5,26.7c-0.6,2.8-2.8,4.5-5.4,4.5L82,233.4L82,233.4z"/>
			<path class="st0" d="M83.3,232c-37.7,0-47.6-19.4-47.6-59.1V72.7C35.7,56.1,47.8,44,64.5,44h50.1v118.5h5.6
				c3.4,0,5.4-3.7,5.4-8.7l0.3-81.1c0-16.6,12.1-28.7,28.7-28.7h49.3v118.5h5.6c3.7-1.4,5.4-3.7,5.4-8.7v-81
				c0-16.6,12.1-28.7,28.7-28.7h49.8v130.6c0,33.2-10.7,57.4-43.9,57.4h-85.3l4.2-29.3c0.6-3.1-1.1-6.2-4.2-6.8
				c-2.8-0.3-5.4,1.7-5.9,4.8l-4.5,26.7c-0.6,2.8-2.8,4.5-5.4,4.5L83.3,232L83.3,232z"/>
			<path class="st0" d="M84.7,230.7c-37.7,0-47.6-19.4-47.6-59.1V71.3c0-16.6,12.1-28.7,28.7-28.7h50.1v118.5h5.6
				c3.4,0,5.4-3.7,5.4-8.7l0.3-81.1c0-16.6,12.1-28.7,28.7-28.7h49.3v118.5h5.6c3.7-1.4,5.4-3.7,5.4-8.7v-81
				c0-16.6,12.1-28.7,28.7-28.7h49.8v130.6c0,33.2-10.7,57.4-43.9,57.4h-85.3l4.2-29.3c0.6-3.1-1.1-6.2-4.2-6.8
				c-2.8-0.3-5.4,1.7-5.9,4.8l-4.5,26.7c-0.6,2.8-2.8,4.5-5.4,4.5L84.7,230.7L84.7,230.7z"/>
			<path class="st0" d="M86.1,229.3c-37.7,0-47.6-19.4-47.6-59.1V70c0-16.6,12.1-28.7,28.7-28.7h50.1v118.5h5.6
				c3.4,0,5.4-3.7,5.4-8.7l0.3-81.1c0-16.6,12.1-28.7,28.7-28.7h49.3v118.5h5.6c3.7-1.4,5.4-3.7,5.4-8.7V70
				c0-16.6,12.1-28.7,28.7-28.7h49.8v130.6c0,33.2-10.7,57.4-43.9,57.4h-85.3l4.2-29.3c0.6-3.1-1.1-6.2-4.2-6.8
				c-2.8-0.3-5.4,1.7-5.9,4.8l-4.5,26.7c-0.6,2.8-2.8,4.5-5.4,4.5L86.1,229.3L86.1,229.3z"/>
			<path class="st0" d="M87.4,227.9c-37.7,0-47.6-19.4-47.6-59.1V68.6C39.9,52,52,39.9,68.6,39.9h50.1v118.5h5.6
				c3.4,0,5.4-3.7,5.4-8.7l0.3-81.1c0-16.6,12.1-28.7,28.7-28.7h49.3v118.5h5.6c3.7-1.4,5.4-3.7,5.4-8.7v-81
				c0-16.6,12.1-28.7,28.7-28.7h49.8v130.6c0,33.2-10.7,57.4-43.9,57.4h-85.3l4.2-29.3c0.6-3.1-1.1-6.2-4.2-6.8
				c-2.8-0.3-5.4,1.7-5.9,4.8l-4.5,26.7c-0.6,2.8-2.8,4.5-5.4,4.5L87.4,227.9L87.4,227.9z"/>
			<path class="st0" d="M88.8,226.5c-37.7,0-47.6-19.4-47.6-59.1V67.2c0-16.6,12.1-28.7,28.7-28.7H120V157h5.6
				c3.4,0,5.4-3.7,5.4-8.7l0.3-81.1c0-16.6,12.1-28.7,28.7-28.7h49.3V157h5.6c3.7-1.4,5.4-3.7,5.4-8.7v-81
				c0-16.6,12.1-28.7,28.7-28.7h49.8v130.6c0,33.2-10.7,57.4-43.9,57.4h-85.3l4.2-29.3c0.6-3.1-1.1-6.2-4.2-6.8
				c-2.8-0.3-5.4,1.7-5.9,4.8l-4.5,26.7c-0.6,2.8-2.8,4.5-5.4,4.5L88.8,226.5L88.8,226.5z"/>
		</g>
		<path class="st1" d="M88.8,226.5c-37.7,0-47.6-19.4-47.6-59.1V67.2c0-16.6,12.1-28.7,28.7-28.7H120V157h5.6c3.4,0,5.4-3.7,5.4-8.7
			l0.3-81.1c0-16.6,12.1-28.7,28.7-28.7h49.3V157h5.6c3.7-1.4,5.4-3.7,5.4-8.7v-81c0-16.6,12.1-28.7,28.7-28.7h49.8v130.6
			c0,33.2-10.7,57.4-43.9,57.4h-85.3l4.2-29.3c0.6-3.1-1.1-6.2-4.2-6.8c-2.8-0.3-5.4,1.7-5.9,4.8l-4.5,26.7
			c-0.6,2.8-2.8,4.5-5.4,4.5L88.8,226.5L88.8,226.5z"/>
	</g>
	<g>
		<g>
			<path class="st0" d="M1211.6,198.2h-10.4l-18.6,51.2c-1.1,2.8-3.7,4.5-6.8,4.5H1106c-6.5,0-10.4-5.6-7.9-11.5l66.7-160.2
				c3.9-9.6,14.4-16.3,25.6-16.3h34.1c10.4,0,19.1,5.4,23.4,15.2l67.6,161.8c2.5,5.9-1.4,11-7.6,11h-115.1L1211.6,198.2z
				 M1231.3,130.9c1.4-5.4,0-9.9-2.8-9.9h-0.6c-3.1,0-5.6,2-6.5,5.1l-9.9,35.2h11.3L1231.3,130.9z"/>
			<path class="st0" d="M1212.9,196.8h-10.4L1184,248c-1.1,2.8-3.7,4.5-6.8,4.5h-69.8c-6.5,0-10.4-5.6-7.9-11.5l66.7-160.2
				c3.9-9.6,14.4-16.3,25.6-16.3h34.1c10.4,0,19.1,5.4,23.4,15.2l67.6,161.8c2.5,5.9-1.4,11-7.6,11h-115.1L1212.9,196.8z
				 M1232.7,129.5c1.4-5.4,0-9.9-2.8-9.9h-0.6c-3.1,0-5.6,2-6.5,5.1l-9.9,35.2h11.3L1232.7,129.5z"/>
			<path class="st0" d="M1214.3,195.5h-10.4l-18.6,51.2c-1.1,2.8-3.7,4.5-6.8,4.5h-69.8c-6.5,0-10.4-5.6-7.9-11.5l66.7-160.2
				c3.9-9.6,14.4-16.3,25.6-16.3h34.1c10.4,0,19.1,5.4,23.4,15.2l67.6,161.8c2.5,5.9-1.4,11-7.6,11h-115.1L1214.3,195.5z
				 M1234,128.2c1.4-5.4,0-9.9-2.8-9.9h-0.6c-3.1,0-5.6,2-6.5,5.1l-9.9,35.2h11.3L1234,128.2z"/>
			<path class="st0" d="M1215.7,194.1h-10.4l-18.6,51.2c-1.1,2.8-3.7,4.5-6.8,4.5h-69.8c-6.5,0-10.4-5.6-7.9-11.5L1169,78.1
				c3.9-9.6,14.4-16.3,25.6-16.3h34.1c10.4,0,19.1,5.4,23.4,15.2l67.6,161.8c2.5,5.9-1.4,11-7.6,11h-115.1L1215.7,194.1z
				 M1235.4,126.8c1.4-5.4,0-9.9-2.8-9.9h-0.6c-3.1,0-5.6,2-6.5,5.1l-9.9,35.2h11.3L1235.4,126.8z"/>
			<path class="st0" d="M1217,192.7h-10.4l-18.6,51.2c-1.1,2.8-3.7,4.5-6.8,4.5h-69.8c-6.5,0-10.4-5.6-7.9-11.5l66.7-160.2
				c3.9-9.6,14.4-16.3,25.6-16.3h34.1c10.4,0,19.1,5.4,23.4,15.2l67.6,161.8c2.5,5.9-1.4,11-7.6,11h-115.1L1217,192.7z
				 M1236.8,125.4c1.4-5.4,0-9.9-2.8-9.9h-0.6c-3.1,0-5.6,2-6.5,5.1l-9.9,35.2h11.3L1236.8,125.4z"/>
			<path class="st0" d="M1218.4,191.3H1208l-18.6,51.2c-1.1,2.8-3.7,4.5-6.8,4.5h-69.8c-6.5,0-10.4-5.6-7.9-11.5l66.7-160.2
				c3.9-9.6,14.4-16.3,25.6-16.3h34.1c10.4,0,19.1,5.4,23.4,15.2l67.6,161.8c2.5,5.9-1.4,11-7.6,11h-115.1L1218.4,191.3z
				 M1238.1,124.1c1.4-5.4,0-9.9-2.8-9.9h-0.6c-3.1,0-5.6,2-6.5,5.1l-9.9,35.2h11.3L1238.1,124.1z"/>
			<path class="st0" d="M1219.8,190h-10.4l-18.6,51.2c-1.1,2.8-3.7,4.5-6.8,4.5h-69.8c-6.5,0-10.4-5.6-7.9-11.5L1173.1,74
				c3.9-9.6,14.4-16.3,25.6-16.3h34.1c10.4,0,19.1,5.4,23.4,15.2l67.6,161.8c2.5,5.9-1.4,11-7.6,11h-115.1L1219.8,190z
				 M1239.5,122.7c1.4-5.4,0-9.9-2.8-9.9h-0.6c-3.1,0-5.6,2-6.5,5.1l-9.9,35.2h11.3L1239.5,122.7z"/>
			<path class="st0" d="M1221.2,188.6h-10.4l-18.6,51.2c-1.1,2.8-3.7,4.5-6.8,4.5h-69.8c-6.5,0-10.4-5.6-7.9-11.5l66.7-160.2
				c3.9-9.6,14.4-16.3,25.6-16.3h34.1c10.4,0,19.1,5.4,23.4,15.2l67.6,161.8c2.5,5.9-1.4,11-7.6,11h-115.1L1221.2,188.6z
				 M1240.9,121.3c1.4-5.4,0-9.9-2.8-9.9h-0.6c-3.1,0-5.6,2-6.5,5.1l-9.9,35.2h11.3L1240.9,121.3z"/>
			<path class="st0" d="M1222.5,187.2h-10.4l-18.6,51.2c-1.1,2.8-3.7,4.5-6.8,4.5H1117c-6.5,0-10.4-5.6-7.9-11.5l66.7-160.2
				c3.9-9.6,14.4-16.3,25.6-16.3h34.1c10.4,0,19.1,5.4,23.4,15.2l67.6,161.8c2.5,5.9-1.4,11-7.6,11h-115.1L1222.5,187.2z
				 M1242.2,120c1.4-5.4,0-9.9-2.8-9.9h-0.6c-3.1,0-5.6,2-6.5,5.1l-9.9,35.2h11.3L1242.2,120z"/>
			<path class="st0" d="M1223.9,185.9h-10.4l-18.6,51.2c-1.1,2.8-3.7,4.5-6.8,4.5h-69.8c-6.5,0-10.4-5.6-7.9-11.5l66.7-160.2
				c3.9-9.6,14.4-16.3,25.6-16.3h34.1c10.4,0,19.1,5.4,23.4,15.2l67.6,161.8c2.5,5.9-1.4,11-7.6,11H1205L1223.9,185.9z
				 M1243.6,118.6c1.4-5.4,0-9.9-2.8-9.9h-0.6c-3.1,0-5.6,2-6.5,5.1l-9.9,35.2h11.3L1243.6,118.6z"/>
			<path class="st0" d="M1225.3,184.5h-10.4l-18.6,51.2c-1.1,2.8-3.7,4.5-6.8,4.5h-69.8c-6.5,0-10.4-5.6-7.9-11.5l66.7-160.2
				c3.9-9.6,14.4-16.3,25.6-16.3h34.1c10.4,0,19.1,5.4,23.4,15.2l67.6,161.8c2.5,5.9-1.4,11-7.6,11h-115.1L1225.3,184.5z
				 M1245,117.2c1.4-5.4,0-9.9-2.8-9.9h-0.6c-3.1,0-5.6,2-6.5,5.1l-9.9,35.2h11.3L1245,117.2z"/>
			<path class="st0" d="M1226.6,183.1h-10.4l-18.6,51.2c-1.1,2.8-3.7,4.5-6.8,4.5h-69.8c-6.5,0-10.4-5.6-7.9-11.5l66.7-160.2
				c3.9-9.6,14.4-16.3,25.6-16.3h34.1c10.4,0,19.1,5.4,23.4,15.2l67.6,161.8c2.5,5.9-1.4,11-7.6,11h-115.1L1226.6,183.1z
				 M1246.3,115.9c1.4-5.4,0-9.9-2.8-9.9h-0.6c-3.1,0-5.6,2-6.5,5.1l-9.9,35.2h11.3L1246.3,115.9z"/>
			<path class="st0" d="M1228,181.8h-10.4L1199,233c-1.1,2.8-3.7,4.5-6.8,4.5h-69.8c-6.5,0-10.4-5.6-7.9-11.5l66.7-160.2
				c3.9-9.6,14.4-16.3,25.6-16.3h34.1c10.4,0,19.1,5.4,23.4,15.2l67.6,161.8c2.5,5.9-1.4,11-7.6,11h-115.1L1228,181.8z
				 M1247.7,114.5c1.4-5.4,0-9.9-2.8-9.9h-0.6c-3.1,0-5.6,2-6.5,5.1l-9.9,35.2h11.3L1247.7,114.5z"/>
			<path class="st0" d="M1229.4,180.4H1219l-18.6,51.2c-1.1,2.8-3.7,4.5-6.8,4.5h-69.8c-6.5,0-10.4-5.6-7.9-11.5l66.7-160.2
				c3.9-9.6,14.4-16.3,25.6-16.3h34.1c10.4,0,19.1,5.4,23.4,15.2l67.6,161.8c2.5,5.9-1.4,11-7.6,11h-115.1L1229.4,180.4z
				 M1249.1,113.1c1.4-5.4,0-9.9-2.8-9.9h-0.6c-3.1,0-5.6,2-6.5,5.1l-9.9,35.2h11.3L1249.1,113.1z"/>
			<path class="st0" d="M1230.7,179h-10.4l-18.6,51.2c-1.1,2.8-3.7,4.5-6.8,4.5h-69.8c-6.5,0-10.4-5.6-7.9-11.5L1184,63.1
				c3.9-9.6,14.4-16.3,25.6-16.3h34.1c10.4,0,19.1,5.4,23.4,15.2l67.6,161.8c2.5,5.9-1.4,11-7.6,11h-115.1L1230.7,179z
				 M1250.4,111.8c1.4-5.4,0-9.9-2.8-9.9h-0.6c-3.1,0-5.6,2-6.5,5.1l-9.9,35.2h11.3L1250.4,111.8z"/>
			<path class="st0" d="M1232.1,177.7h-10.4l-18.6,51.2c-1.1,2.8-3.7,4.5-6.8,4.5h-69.8c-6.5,0-10.4-5.6-7.9-11.5l66.7-160.2
				c3.9-9.6,14.4-16.3,25.6-16.3h34.1c10.4,0,19.1,5.4,23.4,15.2l67.6,161.8c2.5,5.9-1.4,11-7.6,11h-115.1L1232.1,177.7z
				 M1251.8,110.4c1.4-5.4,0-9.9-2.8-9.9h-0.6c-3.1,0-5.6,2-6.5,5.1l-9.9,35.2h11.3L1251.8,110.4z"/>
			<path class="st0" d="M1233.5,176.3h-10.4l-18.6,51.2c-1.1,2.8-3.7,4.5-6.8,4.5h-69.8c-6.5,0-10.4-5.6-7.9-11.5l66.7-160.2
				c3.9-9.6,14.4-16.3,25.6-16.3h34.1c10.4,0,19.1,5.4,23.4,15.2l67.6,161.8c2.5,5.9-1.4,11-7.6,11h-115.1L1233.5,176.3z
				 M1253.2,109c1.4-5.4,0-9.9-2.8-9.9h-0.6c-3.1,0-5.6,2-6.5,5.1l-9.9,35.2h11.3L1253.2,109z"/>
			<path class="st0" d="M1234.8,174.9h-10.4l-18.6,51.2c-1.1,2.8-3.7,4.5-6.8,4.5h-69.8c-6.5,0-10.4-5.6-7.9-11.5L1188.1,59
				c3.9-9.6,14.4-16.3,25.6-16.3h34.1c10.4,0,19.1,5.4,23.4,15.2l67.6,161.8c2.5,5.9-1.4,11-7.6,11H1216L1234.8,174.9z
				 M1254.6,107.6c1.4-5.4,0-9.9-2.8-9.9h-0.6c-3.1,0-5.6,2-6.5,5.1l-9.9,35.2h11.3L1254.6,107.6z"/>
			<path class="st0" d="M1236.2,173.6h-10.4l-18.6,51.2c-1.1,2.8-3.7,4.5-6.8,4.5h-69.8c-6.5,0-10.4-5.6-7.9-11.5l66.7-160.2
				c3.9-9.6,14.4-16.3,25.6-16.3h34.1c10.4,0,19.1,5.4,23.4,15.2l67.6,161.8c2.5,5.9-1.4,11-7.6,11h-115.1L1236.2,173.6z
				 M1255.9,106.3c1.4-5.4,0-9.9-2.8-9.9h-0.6c-3.1,0-5.6,2-6.5,5.1l-9.9,35.2h11.3L1255.9,106.3z"/>
			<path class="st0" d="M1237.6,172.2h-10.4l-18.6,51.2c-1.1,2.8-3.7,4.5-6.8,4.5H1132c-6.5,0-10.4-5.6-7.9-11.5l66.7-160.2
				c3.9-9.6,14.4-16.3,25.6-16.3h34.1c10.4,0,19.1,5.4,23.4,15.2l67.6,161.8c2.5,5.9-1.4,11-7.6,11h-115.1L1237.6,172.2z
				 M1257.3,104.9c1.4-5.4,0-9.9-2.8-9.9h-0.6c-3.1,0-5.6,2-6.5,5.1l-9.9,35.2h11.3L1257.3,104.9z"/>
			<path class="st0" d="M1238.9,170.8h-10.4L1210,222c-1.1,2.8-3.7,4.5-6.8,4.5h-69.8c-6.5,0-10.4-5.6-7.9-11.5l66.7-160.2
				c3.9-9.6,14.4-16.3,25.6-16.3h34.1c10.4,0,19.1,5.4,23.4,15.2l67.6,161.8c2.5,5.9-1.4,11-7.6,11h-115.1L1238.9,170.8z
				 M1258.7,103.5c1.4-5.4,0-9.9-2.8-9.9h-0.6c-3.1,0-5.6,2-6.5,5.1l-9.9,35.2h11.3L1258.7,103.5z"/>
		</g>
		<path class="st1" d="M1238.9,170.8h-10.4L1210,222c-1.1,2.8-3.7,4.5-6.8,4.5h-69.8c-6.5,0-10.4-5.6-7.9-11.5l66.7-160.2
			c3.9-9.6,14.4-16.3,25.6-16.3h34.1c10.4,0,19.1,5.4,23.4,15.2l67.6,161.8c2.5,5.9-1.4,11-7.6,11h-115.1L1238.9,170.8z
			 M1258.7,103.5c1.4-5.4,0-9.9-2.8-9.9h-0.6c-3.1,0-5.6,2-6.5,5.1l-9.9,35.2h11.3L1258.7,103.5z"/>
	</g>
	<g>
		<g>
			<path class="st0" d="M1736.3,253.9H1667c-4.2,0-7.3-3.1-7.3-7v-174c0-3.9,3.1-7,7-7h69.5c3.9,0,7,3.1,7,7v173.7
				C1743.3,250.8,1740.2,253.9,1736.3,253.9z"/>
			<path class="st0" d="M1737.6,252.6h-69.2c-4.2,0-7.3-3.1-7.3-7v-174c0-3.9,3.1-7,7-7h69.5c3.9,0,7,3.1,7,7v173.7
				C1744.7,249.5,1741.6,252.6,1737.6,252.6z"/>
			<path class="st0" d="M1739,251.2h-69.2c-4.2,0-7.3-3.1-7.3-7v-174c0-3.9,3.1-7,7-7h69.5c3.9,0,7,3.1,7,7v173.7
				C1746,248.1,1742.9,251.2,1739,251.2z"/>
			<path class="st0" d="M1740.4,249.8h-69.2c-4.2,0-7.3-3.1-7.3-7v-174c0-3.9,3.1-7,7-7h69.5c3.9,0,7,3.1,7,7v173.7
				C1747.4,246.7,1744.3,249.8,1740.4,249.8z"/>
			<path class="st0" d="M1741.7,248.4h-69.2c-4.2,0-7.3-3.1-7.3-7v-174c0-3.9,3.1-7,7-7h69.5c3.9,0,7,3.1,7,7v173.7
				C1748.8,245.4,1745.7,248.4,1741.7,248.4z"/>
			<path class="st0" d="M1743.1,247.1h-69.2c-4.2,0-7.3-3.1-7.3-7v-174c0-3.9,3.1-7,7-7h69.5c3.9,0,7,3.1,7,7v173.7
				C1750.2,244,1747,247.1,1743.1,247.1z"/>
			<path class="st0" d="M1744.5,245.7h-69.2c-4.2,0-7.3-3.1-7.3-7v-174c0-3.9,3.1-7,7-7h69.5c3.9,0,7,3.1,7,7v173.7
				C1751.5,242.6,1748.4,245.7,1744.5,245.7z"/>
			<path class="st0" d="M1745.9,244.3h-69.2c-4.2,0-7.3-3.1-7.3-7v-174c0-3.9,3.1-7,7-7h69.5c3.9,0,7,3.1,7,7V237
				C1752.9,241.2,1749.8,244.3,1745.9,244.3z"/>
			<path class="st0" d="M1747.2,243H1678c-4.2,0-7.3-3.1-7.3-7V62c0-3.9,3.1-7,7-7h69.5c3.9,0,7,3.1,7,7v173.7
				C1754.3,239.9,1751.2,243,1747.2,243z"/>
			<path class="st0" d="M1748.6,241.6h-69.2c-4.2,0-7.3-3.1-7.3-7v-174c0-3.9,3.1-7,7-7h69.5c3.9,0,7,3.1,7,7v173.7
				C1755.6,238.5,1752.5,241.6,1748.6,241.6z"/>
			<path class="st0" d="M1750,240.2h-69.2c-4.2,0-7.3-3.1-7.3-7v-174c0-3.9,3.1-7,7-7h69.5c3.9,0,7,3.1,7,7v173.7
				C1757,237.1,1753.9,240.2,1750,240.2z"/>
			<path class="st0" d="M1751.3,238.9h-69.2c-4.2,0-7.3-3.1-7.3-7v-174c0-3.9,3.1-7,7-7h69.5c3.9,0,7,3.1,7,7v173.7
				C1758.4,235.8,1755.3,238.9,1751.3,238.9z"/>
			<path class="st0" d="M1752.7,237.5h-69.2c-4.2,0-7.3-3.1-7.3-7v-174c0-3.9,3.1-7,7-7h69.5c3.9,0,7,3.1,7,7v173.7
				C1759.7,234.4,1756.6,237.5,1752.7,237.5z"/>
			<path class="st0" d="M1754.1,236.1h-69.2c-4.2,0-7.3-3.1-7.3-7v-174c0-3.9,3.1-7,7-7h69.5c3.9,0,7,3.1,7,7v173.7
				C1761.1,233,1758,236.1,1754.1,236.1z"/>
			<path class="st0" d="M1755.4,234.8h-69.2c-4.2,0-7.3-3.1-7.3-7v-174c0-3.9,3.1-7,7-7h69.5c3.9,0,7,3.1,7,7v173.7
				C1762.5,231.7,1759.4,234.8,1755.4,234.8z"/>
			<path class="st0" d="M1756.8,233.4h-69.2c-4.2,0-7.3-3.1-7.3-7v-174c0-3.9,3.1-7,7-7h69.5c3.9,0,7,3.1,7,7v173.7
				C1763.8,230.3,1760.7,233.4,1756.8,233.4z"/>
			<path class="st0" d="M1758.2,232h-69.2c-4.2,0-7.3-3.1-7.3-7V51c0-3.9,3.1-7,7-7h69.5c3.9,0,7,3.1,7,7v173.7
				C1765.2,228.9,1762.1,232,1758.2,232z"/>
			<path class="st0" d="M1759.5,230.7h-69.2c-4.2,0-7.3-3.1-7.3-7v-174c0-3.9,3.1-7,7-7h69.5c3.9,0,7,3.1,7,7v173.7
				C1766.6,227.6,1763.5,230.7,1759.5,230.7z"/>
			<path class="st0" d="M1760.9,229.3h-69.2c-4.2,0-7.3-3.1-7.3-7v-174c0-3.9,3.1-7,7-7h69.5c3.9,0,7,3.1,7,7V222
				C1767.9,226.2,1764.8,229.3,1760.9,229.3z"/>
			<path class="st0" d="M1762.3,227.9H1693c-4.2,0-7.3-3.1-7.3-7v-174c0-3.9,3.1-7,7-7h69.5c3.9,0,7,3.1,7,7v173.7
				C1769.3,224.8,1766.2,227.9,1762.3,227.9z"/>
			<path class="st0" d="M1763.6,226.5h-69.2c-4.2,0-7.3-3.1-7.3-7v-174c0-3.9,3.1-7,7-7h69.5c3.9,0,7,3.1,7,7v173.7
				C1770.7,223.5,1767.6,226.5,1763.6,226.5z"/>
		</g>
		<path class="st1" d="M1763.6,226.5h-69.2c-4.2,0-7.3-3.1-7.3-7v-174c0-3.9,3.1-7,7-7h69.5c3.9,0,7,3.1,7,7v173.7
			C1770.7,223.5,1767.6,226.5,1763.6,226.5z"/>
	</g>
</g>
</svg>
